<svg viewBox="0 0 165 40" xmlns="http://www.w3.org/2000/svg"><g fill="#fff"><path d="m10.002.319336v4.246044h2.9836v.00101c.0475-.00102.096-.00203.1434-.00203 6.0491 0 10.9533 4.92666 10.9533 11.00364 0 6.0769-4.9042 11.0035-10.9533 11.0035-.0474 0-.0959-.001-.1434-.002v.0152h-2.9836v4.2461h18.6835v-30.511464z"/><path d="m5.40102 4.56543h-4.601215v26.26637h4.601215z"/><path d="m68.5745 13.7003s-1.2409.001-2.6747.001c-2.6404 0-4.6406 2.198-4.6406 6.6703v10.4599h-4.5649v-21.2231h4.5649v5.4196c.9431-3.7145 2.7545-5.4196 5.8472-5.4196h1.4631z" fill="#fff"/><path d="m142.396 13.7003s-1.91.001-3.344.001c-2.64 0-4.64 2.198-4.64 6.6703v10.4599h-4.565v-21.2231h4.565v5.4196c.943-3.7145 2.754-5.4196 5.847-5.4196h.419z"/><path d="m74.236 30.8316h-4.6022v-21.2231h4.6022zm-.003-26.27554h-4.5921v-4.231841h4.5921z"/><path d="m80.1313 30.8314h-4.5649v-21.2231h4.5649v4.9652c1.3207-3.6009 3.7349-5.38209 7.0921-5.38209 3.5835 0 5.8856 2.00839 6.7156 5.30599 1.4338-3.4863 4.0368-5.30599 7.394-5.30599 4.715 0 7.244 3.48629 7.244 8.64119v12.9988h-4.565v-11.8242c0-3.6384-1.056-5.9877-4.5277-5.9877-3.3199 0-5.1303 2.615-5.1303 7.2769v10.536h-4.5649v-11.8627c0-3.676-1.0562-5.9502-4.5275-5.9502-3.3199 0-5.1303 2.6911-5.1303 7.352z"/><path d="m151.849 39.0182h-4.754l3.735-8.5275-8.828-20.8823h4.715l5.621 13.6439.868 2.8047.943-2.8047 5.508-13.6439h4.64z"/><path d="m37.8698 19.5764v11.2552h-4.6022v-30.507381h10.9028c7.4324 0 11.3551 3.600921 11.3934 9.322821 0 6.25346-4.4517 9.92936-11.1663 9.92936zm0-15.00817v11.44587h6.1117c4.6023 0 7.0548-1.8948 7.0548-5.7605 0-4.01678-2.4525-5.68436-7.0164-5.68436h-6.1501z"/><path d="m128.457 24.8257c0-.0021 0-.0041 0-.0061v-8.0306c0-4.9621-3.243-7.57611-8.522-7.57611-4.675 0-8.408 2.23461-10.181 6.62871l4.11 1.3258c.17-.4768.362-.918.583-1.3217 1.06-1.9334 2.74-2.9964 5.298-2.9964 3.168 0 4.336 1.3633 4.336 2.9548 0 1.5905-1.282 2.2346-5.052 3.0298-3.62.7577-5.581 1.2882-7.089 2.2346-1.621 1.0225-2.676 2.4243-2.676 4.8486 0 3.2581 2.376 5.303 6.635 5.303 3.771 0 6.901-2.046 8.22-5.4927 0 1.6777.074 5.1032.074 5.1032h4.262v-6.0049zm-4.222-3.9458c0 3.5989-2.903 6.8934-6.599 6.8934-2.489 0-3.77-.9463-3.77-2.6139 0-2.1971 1.809-2.9548 5.581-3.7876 2.789-.6066 4.147-1.136 4.789-2.0074v1.5155z"/></g></svg>