<svg viewBox="0 0 150 29.15" xmlns="http://www.w3.org/2000/svg"><path d="m37.53.61h4.33v3.88h-4.33zm0 22.75h4.33v-16.36h-4.33zm17.37-16.36h4.17v15.35a6.32 6.32 0 0 1 -1.94 5 8.56 8.56 0 0 1 -5.89 1.84c-4.45 0-7.19-1.9-7.64-5.09h4.3c.35 1 1.27 1.82 3.28 1.82 2.45 0 3.62-1.18 3.62-3.41v-2h-.09a5.3 5.3 0 0 1 -4.27 1.91c-3.62 0-7.19-2.87-7.19-7.8s2.93-8 7.07-8a5.27 5.27 0 0 1 4.52 2.16h.06zm.1 7.49c0-2.39-1.28-4.43-3.89-4.43-2.19 0-3.65 1.72-3.65 4.46s1.46 4.39 3.69 4.39c2.76 0 3.85-2.01 3.85-4.42zm15.3-7.89a5.29 5.29 0 0 0 -4.83 2.67h-.1v-2.27h-4.23v16.36h4.33v-9.26c0-2.22 1.4-3.75 3.31-3.75a2.72 2.72 0 0 1 2.83 3v10h4.32v-10.65c0-3.56-2.25-6.1-5.63-6.1zm23.83 16.76h4.32v-22.75h-4.32zm6.78 0h4.62v-9.36h8.62v-4h-8.62v-5.47h10.4v-3.92h-15zm16.87-18.87h4.33v-3.88h-4.33zm0 18.87h4.33v-16.36h-4.33zm27.7-4.86h4.27c-.61 2.89-3.19 5.34-7.39 5.34-5.4 0-8.46-3.79-8.46-8.65s3.28-8.59 8-8.59c5.25 0 8.05 4 8.05 9.83h-11.79c.32 2.51 1.72 4.07 4.17 4.07a3 3 0 0 0 3.15-2zm-7.25-5.06h7.25a3.43 3.43 0 0 0 -3.48-3.5c-2.28 0-3.39 1.36-3.77 3.5zm-46.3-.8v10.72h-3.76v-2.25c-.79 1.48-2.41 2.64-5.22 2.64-3.34 0-5.69-1.75-5.69-5 0-3.6 2.93-4.74 6.55-5.25 2.71-.38 4-.6 4-1.85s-.97-1.94-2.81-1.94c-2 0-3 .74-3.15 2.29h-3.85c.13-2.86 2.26-5.37 7-5.37s6.93 2.19 6.93 6.01zm-4.07 2.51a12.27 12.27 0 0 1 -3 1c-2.26.51-3.37 1-3.37 2.54s1 2.07 2.55 2.07c2.48 0 3.85-1.53 3.85-3.12zm-85.18 6.78a8.52 8.52 0 0 0 1.81 1v-6.64h-4.49a7.07 7.07 0 0 0 2.68 5.64zm-1.38-18.04a6.42 6.42 0 0 0 -.66 3 5.92 5.92 0 0 0 .66 3 5.84 5.84 0 0 0 1.7 1.84 9.17 9.17 0 0 0 1.46.77v-11.5a8.13 8.13 0 0 0 -1.36.77 6.15 6.15 0 0 0 -1.8 2.12zm31.76 7.74a10.69 10.69 0 0 0 -2.73-1.24c-1-.31-2.15-.59-3.33-.85q-1.29-.29-2.22-.54a7.47 7.47 0 0 1 -1.55-.61 2.74 2.74 0 0 1 -.94-.82 2.15 2.15 0 0 1 -.29-1.18 2.26 2.26 0 0 1 1.12-2 5.46 5.46 0 0 1 3-.74 5.06 5.06 0 0 1 3 .87 3.49 3.49 0 0 1 1.42 2.6h4.46a7 7 0 0 0 -2.62-5.33 9.9 9.9 0 0 0 -6.22-1.79 13.5 13.5 0 0 0 -3.53.43 8.4 8.4 0 0 0 -2.78 1.3 6.15 6.15 0 0 0 -1.85 2.16 6.43 6.43 0 0 0 -.66 3 5.91 5.91 0 0 0 .66 3 5.84 5.84 0 0 0 1.73 1.9 9.22 9.22 0 0 0 2.51 1.17c.95.29 1.94.55 3 .79.88.19 1.67.38 2.36.56a9 9 0 0 1 1.79.64 3.13 3.13 0 0 1 1.14.92 2.24 2.24 0 0 1 .4 1.38 2.39 2.39 0 0 1 -.37 1.36 2.89 2.89 0 0 1 -1 .92 4.62 4.62 0 0 1 -1.41.51 8.56 8.56 0 0 1 -1.71.16 6.28 6.28 0 0 1 -3.69-.88 4.05 4.05 0 0 1 -1.48-3h-4.55a7.07 7.07 0 0 0 2.68 5.64q2.55 2 7.25 2a12.61 12.61 0 0 0 3.56-.48 8.52 8.52 0 0 0 2.79-1.48 6.45 6.45 0 0 0 1.86-2.28 6.89 6.89 0 0 0 .68-3.1 6.12 6.12 0 0 0 -.68-3.05 5.65 5.65 0 0 0 -1.8-1.94zm-22.61 4.66h-4.56a7.07 7.07 0 0 0 2.68 5.64 11.32 11.32 0 0 0 6.75 2v-3.79a6.05 6.05 0 0 1 -3.39-.88 4.09 4.09 0 0 1 -1.48-2.97zm1.35-15.86a13.85 13.85 0 0 1 3.52-.43v3.7a5.46 5.46 0 0 0 -3 .74 2.26 2.26 0 0 0 -1.12 2 2.15 2.15 0 0 0 .3 1.18 2.74 2.74 0 0 0 .94.82 7.47 7.47 0 0 0 1.56.56l1.37.34v4.55l-.92-.2c-1-.24-2-.5-3-.79a9 9 0 0 1 -2.5-1.17 5.76 5.76 0 0 1 -1.74-1.9 5.91 5.91 0 0 1 -.66-2.95 6.43 6.43 0 0 1 .66-3 6.15 6.15 0 0 1 1.79-2.15 8.4 8.4 0 0 1 2.8-1.3zm112.41 6.57v4 12.36h4.33v-12.36h5.31v-4z" fill="#fff"/></svg>