<svg fill="none" height="24" viewBox="0 0 25 24" width="25" xmlns="http://www.w3.org/2000/svg" xmlns:xlink="http://www.w3.org/1999/xlink"><clipPath id="a"><path d="m.333344 0h24v24h-24z"/></clipPath><g clip-path="url(#a)"><path d="m12.1096 16.8681-6.94004 5.29c-.29.22-.68001-.09-.53001-.42l3.12-7.11c.06-.15.02-.32-.1-.42l-6.53-5.11003c-.259995-.2-.11999-.63.22001-.63h6.77999c.13 0 .24-.07.3-.18l3.59995-6.34c.13-.24.47-.24.61 0l3.6001 6.34c.06.11.18.18.3.18h6.78c.33 0 .48.42.22.63l-6.53 5.11003c-.13.1-.17.27-.1.42l3.1199 7.11c.15.33-.25.64-.53.42l-6.9399-5.29c-.13-.1-.3001-.1-.4201 0z" stroke="#33b4ff" stroke-miterlimit="10"/></g></svg>