<svg enable-background="new 0 0 40 40" viewBox="0 0 40 40" xmlns="http://www.w3.org/2000/svg"><g fill="#f2788d"><path d="m27.6 19.2c0-1.9-.3-3.7-.7-5.3h1.9.4l-.2-.4c0-.1-.1-.1-.1-.2-.2-.3-.3-.6-.5-.9l-.1-.1h-.1-1.7c-.6-1.9-1.4-3.5-2.4-4.7.9.4 1.8.8 2.6 1.3l.3.2v-.4c0-.4.1-.7.2-1l.1-.2-.2-.1c-2.1-1.2-4.6-1.9-7.2-1.9-7.9 0-14.4 6.5-14.4 14.5s6.5 14.5 14.5 14.5 14.5-6.5 14.5-14.5c0-2.1-.5-4.1-1.3-5.9l-.2-.4-.2.4c-.2.3-.4.5-.5.8 0 .1-.1.1-.1.2 0 0-.1.1-.1.1h-.1l.1.1c.5 1.2.8 2.5.9 3.9zm-1.5 0h-12.2c.1-1.9.3-3.7.7-5.3h10.7c.5 1.6.7 3.4.8 5.3zm-11.4 6.9c-.4-1.6-.7-3.4-.7-5.3h12.2c-.1 1.9-.3 3.7-.7 5.3zm5.3-19.1c1 0 1.9.5 2.8 1.5.8.9 1.5 2.2 2.1 3.8h-9.8c.6-1.6 1.3-2.9 2.1-3.8.9-.9 1.8-1.5 2.8-1.5zm-10.5 5.4c1.6-2.2 3.8-3.8 6.4-4.7-1 1.2-1.8 2.8-2.4 4.7zm-.9 1.5h4.4c-.4 1.6-.6 3.4-.7 5.3h-5.2c.1-1.9.6-3.7 1.5-5.3zm-1.5 6.9h5.3c0 1.9.3 3.7.7 5.3h-4.5c-.9-1.6-1.4-3.4-1.5-5.3zm6.4 6.8c.6 1.9 1.4 3.5 2.4 4.7-2.6-.9-4.8-2.5-6.4-4.7zm6.5 5.4c-1 0-1.9-.5-2.8-1.5-.8-.9-1.5-2.2-2.1-3.8h9.8c-.6 1.6-1.3 2.9-2.1 3.8-.9.9-1.8 1.5-2.8 1.5zm6.5-5.4h3.9c-1.6 2.1-3.8 3.8-6.4 4.7 1.1-1.2 1.9-2.8 2.5-4.7zm6.4-6.8c-.1 1.9-.6 3.7-1.5 5.3h-4.4c.4-1.6.6-3.4.7-5.3z" stroke="#f2788d" stroke-width=".5"/><path d="m31 5.7c-1.6 0-2.9 1.4-2.9 3 0 1.5 2.2 4.9 2.5 5.3.1.1.2.2.4.2s.3-.1.4-.2c.3-.4 2.5-3.8 2.5-5.3 0-1.6-1.3-3-2.9-3zm0 4.6c-.8 0-1.4-.7-1.4-1.5s.6-1.5 1.4-1.5 1.4.7 1.4 1.5c.1.8-.6 1.5-1.4 1.5z"/></g></svg>