<svg enable-background="new 0 0 40 40" viewBox="0 0 40 40" xmlns="http://www.w3.org/2000/svg"><path d="m20.7 28.6v-9.9c.2 0 .4.1.6.1.8 0 1.6-.2 2.3-.5 1.8-.8 3.5-1.9 4.9-3.4 3.2-3.3 3.3-8.3 3.3-8.5 0-.3-.1-.6-.3-.8s-.5-.3-.8-.3c-.2 0-5.2.1-8.5 3.4-1.8 1.7-3.1 3.9-3.8 6.3-.4-.6-.9-1.1-1.4-1.6-2-1.8-4.6-2.8-7.3-2.9-.2 0-.3 0-.4.1s-.3.1-.4.3c-.1.1-.2.2-.2.4-.1.1-.1.3-.1.4.1 2.7 1.1 5.3 2.9 7.3 1.9 1.9 4.3 3.3 6.1 3.3.3 0 .6 0 .9-.1v6.7c-3.1.3-6 1.5-8.4 3.4-.1.1-.2.2-.3.3s-.1.3-.2.4v.5c0 .2.1.3.2.4s.2.2.4.3c.1.1.3.1.5.1s.3 0 .5-.1c.1-.1.3-.1.4-.3 2.5-2 5.5-3 8.7-3s6.2 1.1 8.6 3.1c.1.1.2.2.4.2.1 0 .3.1.4 0 .1 0 .3-.1.4-.1.1-.1.3-.2.3-.3.1-.1.2-.2.2-.4 0-.1.1-.3 0-.4 0-.1-.1-.3-.1-.4-.1-.1-.2-.3-.3-.3-2.7-2.3-6-3.6-9.5-3.7zm3.1-18.4c1.6-1.4 3.5-2.3 5.6-2.6-.3 2.1-1.1 4.1-2.6 5.6-1.2 1.2-2.6 2.2-4.1 2.9-1.1.4-1.8.4-2 .2 0 0 0-.1-.1-.1v-.4c0-.1 0-.3-.1-.4.6-2 1.7-3.9 3.3-5.2zm-5.9 9.5c-.3.3-2.4-.1-4.9-2.5-1.1-1.2-1.8-2.8-2.1-4.4 1.6.2 3.2 1 4.4 2.1 2.5 2.3 2.9 4.5 2.6 4.8z" fill="#3cecaf"/></svg>