<svg enable-background="new 0 0 40 40" viewBox="0 0 40 40" xmlns="http://www.w3.org/2000/svg"><g fill="none" stroke="#fff48f" stroke-width="2"><path d="m28.9 7.5h-17.8c-2 0-3.6 1.6-3.6 3.6v17.9c0 2 1.6 3.6 3.6 3.6h17.9c2 0 3.6-1.6 3.6-3.6v-17.9c-.1-2-1.7-3.6-3.7-3.6z"/><path d="m16.6 23.4v4.2c0 .7.6 1.3 1.3 1.3h4.3c.7 0 1.3-.6 1.3-1.3v-4.2h4.2c.7 0 1.3-.6 1.3-1.3v-4.3c0-.7-.6-1.3-1.3-1.3h-4.2v-4.2c0-.7-.6-1.3-1.3-1.3h-4.3c-.7 0-1.3.6-1.3 1.3v4.2h-4.2c-.7 0-1.3.6-1.3 1.3v4.3c0 .7.6 1.3 1.3 1.3z"/></g></svg>