<svg fill="none" height="24" viewBox="0 0 24 24" width="24" xmlns="http://www.w3.org/2000/svg" xmlns:xlink="http://www.w3.org/1999/xlink"><mask id="a" fill="#fff"><path d="m4.45161 9.82247c.61936 0 1.2.08254 1.70323.16508.92903.16505 1.70323.28885 2.24516-.20635.34839-.2889.50323-.82542.50323-1.5683 0-1.6921-.85162-2.9715-2.51613-3.71437.38709-.49525.61935-1.11432.61935-1.77465 0-1.48575-1.16129-2.72388-2.55484-2.72388s-2.55484 1.23813-2.55484 2.72388c0 .66033.23226 1.2794.61936 1.77465-1.664517.74287-2.51613 2.02227-2.51613 3.71437 0 .74288.154839 1.23813.503226 1.5683.580644.5365 1.819354.2889 2.245164.20635.50322-.08254 1.08387-.16508 1.70322-.16508zm0-8.955782c.96775 0 1.78065.866692 1.78065 1.898462s-.8129 1.89846-1.78065 1.89846c-.96774 0-1.78064-.86669-1.78064-1.89846s.8129-1.898462 1.78064-1.898462zm-3.44516 8.295452c-.154837-.12382-.232256-.45398-.232256-.90796 0-1.52703.812906-2.51753 2.438706-3.09532.34839.20635.7742.33017 1.23871.33017.46452 0 .89033-.12382 1.23871-.33017 1.62581.57779 2.43871 1.60956 2.43871 3.09532 0 .45398-.07742.78414-.23226.90796-.27096.24762-.89032.12381-1.6258 0-.54194-.08255-1.16129-.20636-1.81936-.20636-.65806 0-1.27742.08254-1.81935.20636-.73549.16508-1.35484.24762-1.62581 0z" fill="#fff"/></mask><g fill="#33b4ff"><path d="m4.45161 9.82247c.61936 0 1.2.08254 1.70323.16508.92903.16505 1.70323.28885 2.24516-.20635.34839-.2889.50323-.82542.50323-1.5683 0-1.6921-.85162-2.9715-2.51613-3.71437.38709-.49525.61935-1.11432.61935-1.77465 0-1.48575-1.16129-2.72388-2.55484-2.72388s-2.55484 1.23813-2.55484 2.72388c0 .66033.23226 1.2794.61936 1.77465-1.664517.74287-2.51613 2.02227-2.51613 3.71437 0 .74288.154839 1.23813.503226 1.5683.580644.5365 1.819354.2889 2.245164.20635.50322-.08254 1.08387-.16508 1.70322-.16508zm0-8.955782c.96775 0 1.78065.866692 1.78065 1.898462s-.8129 1.89846-1.78065 1.89846c-.96774 0-1.78064-.86669-1.78064-1.89846s.8129-1.898462 1.78064-1.898462zm-3.44516 8.295452c-.154837-.12382-.232256-.45398-.232256-.90796 0-1.52703.812906-2.51753 2.438706-3.09532.34839.20635.7742.33017 1.23871.33017.46452 0 .89033-.12382 1.23871-.33017 1.62581.57779 2.43871 1.60956 2.43871 3.09532 0 .45398-.07742.78414-.23226.90796-.27096.24762-.89032.12381-1.6258 0-.54194-.08255-1.16129-.20636-1.81936-.20636-.65806 0-1.27742.08254-1.81935.20636-.73549.16508-1.35484.24762-1.62581 0z"/><path d="m6.15484 9.98755.17497-.98466-.01311-.00215zm2.24516-.20635-.63832-.76977-.01852.01535-.01776.01623zm-2.0129-5.28267-.78789-.61583-.78766 1.00773 1.16799.52128zm-3.87097 0 .40755.91318 1.16799-.52128-.78766-1.00773zm-2.012904 5.28267-.687927.7259.009277.0086zm2.245164.20635-.16187-.98681-.01425.00234-.01419.00275zm-1.74194-.82541.6746-.73819-.02434-.02224-.02574-.02059zm2.20645-4.00328.50963-.8604-.40307-.23874-.44143.15688zm2.47742 0 .33487-.94226-.44142-.15688-.40307.23874zm2.20645 4.00328-.62451-.78102-.02575.02059-.02433.02224zm-1.6258 0 .166-.98613-.0077-.0013-.00773-.00117zm-3.63871 0 .21901.97576.00371-.0009zm1.81935 1.66036c.53526 0 1.05061.0714 1.54137.1519l.32372-1.97366c-.51569-.08459-1.16164-.17827-1.86509-.17827zm1.52828.1496c.44321.0788.97233.1731 1.47002.1595.53116-.0145 1.12156-.1524 1.62469-.6122l-1.3492-1.47639c-.03881.03547-.10647.08325-.33015.08936-.25714.00703-.57963-.04307-1.06546-.12939zm3.05843-.4211c.70913-.58807.86491-1.5267.86491-2.3381h-2c0 .30963-.03321.521-.07541.65599-.04055.1297-.07699.15154-.06614.14254zm.86491-2.3381c0-1.01993-.25904-1.96302-.80479-2.77227-.54372-.80624-1.33291-1.42198-2.30379-1.85529l-.81511 1.82637c.69364.30957 1.16251.70496 1.46073 1.14717.29619.43919.46296.98185.46296 1.65402zm-2.72825-3.09855c.51565-.65973.83147-1.49292.83147-2.39047h-2c0 .42312-.1487.82805-.40724 1.15882zm.83147-2.39047c0-1.976721-1.54962-3.72388-3.55484-3.72388v2c.78188 0 1.55484.72909 1.55484 1.72388zm-3.55484-3.72388c-2.00522 0-3.554836 1.747159-3.554836 3.72388h1.999996c0-.99479.77297-1.72388 1.55484-1.72388zm-3.554836 3.72388c0 .89755.315816 1.73074.831476 2.39047l1.57576-1.23165c-.25854-.33077-.40724-.7357-.40724-1.15882zm1.211806.86146c-.97088.43331-1.760077 1.04905-2.303793 1.85529-.54575.80925-.804787 1.75234-.804787 2.77227h2c0-.67217.16677-1.21483.46295-1.65402.29822-.44221.76709-.8376 1.46073-1.14717zm-3.10858 4.62756c0 .86024.176855 1.68902.815354 2.2941l1.375746-1.45163c-.05828-.05523-.1911-.21695-.1911-.84247zm.824576 2.3028c.58728.5426 1.382974.6065 1.871144.6008.53721-.0064 1.03592-.1071 1.24297-.1472l-.38061-1.96347c-.21875.0424-.5523.10681-.88605.11076-.16445.00195-.29591-.0118-.39112-.03552-.09556-.02382-.11277-.04702-.09903-.03433zm3.085674.4587c.49076-.0805 1.0061-.1519 1.54136-.1519v-2.00003c-.70345 0-1.34939.09368-1.86509.17827zm1.54136-9.10771c.35607 0 .78065.35765.78065.89846h2c0-1.52274-1.20123-2.898462-2.78065-2.898462zm.78065.89846c0 .5408-.42457.89846-.78065.89846v2c1.57942 0 2.78065-1.37572 2.78065-2.89846zm-.78065.89846c-.35607 0-.78064-.35766-.78064-.89846h-2c0 1.52274 1.20123 2.89846 2.78064 2.89846zm-.78064-.89846c0-.54081.42457-.89846.78064-.89846v-2.000002c-1.57941 0-2.78064 1.375722-2.78064 2.898462zm-2.04 5.61597c.09727.07778.14348.15577.15981.18696.01693.03234.01728.04397.01159.02125-.0052-.02081-.01269-.05934-.01863-.11872-.00586-.05856-.00955-.13064-.00955-.21643h-1.999996c0 .27528.022639.55932.087948.82043.0577478.23088.1869961.60242.519794.86854zm.14322-.12694c0-.57473.14819-.97439.39214-1.28092.25495-.32035.68268-.6238 1.38144-.87214l-.66974-1.88452c-.92704.32946-1.71866.81015-2.276617 1.51125-.5689558.71493-.827219 1.57402-.827219 2.52633zm.92909-2.23492c.50399.29852 1.10604.46977 1.74833.46977v-2c-.28673 0-.5363-.07638-.72908-.19057zm1.74833.46977c.6423 0 1.24435-.17125 1.74834-.46977l-1.01925-1.7208c-.19278.11419-.44235.19057-.72909.19057zm.90384-.38791c.68979.24515 1.11997.55576 1.37841.88378.24946.31662.39517.71991.39517 1.26928h2c0-.93639-.26073-1.79186-.82418-2.50702-.55446-.70374-1.34364-1.19792-2.27966-1.53056zm1.77358 2.15306c0 .08579-.00369.15787-.00955.21643-.00594.05938-.01342.09791-.01863.11871-.00568.02273-.00534.0111.01159-.02124.01633-.03119.06255-.10918.15982-.18696l1.24903 1.56203c.3328-.26612.46205-.63766.51979-.86854.06531-.26111.08795-.54515.08795-.82043zm.09315.16977c.10731-.09807.20596-.11902.21577-.12096.00651-.00128-.02703.00534-.12482-.00005-.20935-.01154-.47438-.05929-.87616-.12693l-.33201 1.97229c.33371.0561.7461.1322 1.09804.1516.29938.0165.9052.0237 1.36837-.39958zm-.80064-.25041c-.48346-.07364-1.21334-.21776-1.96993-.21776v2c.55954 0 1.06837.10352 1.66879.19492zm-1.96993-.21776c-.74035 0-1.43459.09269-2.04208.23147l.44545 1.94975c.47639-.1088 1.02086-.18122 1.59663-.18122zm-2.03836.23063c-.35905.08059-.62198.12444-.80483.13117-.08851.00325-.12077-.00411-.11512-.00282.00753.00171.09238.02204.18775.10919l-1.349194 1.47637c.443696.40548 1.019844.42808 1.350044.41588.37844-.0139.79293-.0938 1.16936-.1783z" mask="url(#a)"/><path d="m21.4839 4.54003c.3871-.49525.6194-1.11431.6194-1.77465 0-1.48575-1.1613-2.7238761-2.5549-2.7238761-1.3935 0-2.5548 1.2381261-2.5548 2.7238761 0 .66034.2322 1.2794.6193 1.77465-1.6645.74288-2.5161 2.02227-2.5161 3.71438 0 .74287.1548 1.23813.5032 1.56829.5807.5365 1.8194.2889 2.2452.2064.5032-.08258 1.1226-.16513 1.7032-.16513.6194 0 1.2.08255 1.7032.16513.9291.165 1.7033.2889 2.2452-.2064.3484-.28889.5032-.82542.5032-1.56829 0-1.69211-.8516-2.9715-2.5161-3.71438zm-1.9355-3.673109c.9678 0 1.7807.866689 1.7807 1.898459s-.8129 1.89846-1.7807 1.89846c-.9677 0-1.7806-.86669-1.7806-1.89846s.8129-1.898459 1.7806-1.898459zm3.4452 8.295449c-.271.24762-.8903.12381-1.6258 0-.542-.08254-1.1613-.20636-1.8194-.20636s-1.2774.08255-1.8193.20636c-.7355.12381-1.3549.20635-1.6258 0-.1549-.12381-.2323-.45398-.2323-.90796 0-1.52702.8129-2.51752 2.4387-3.09532.3484.20636.7742.33017 1.2387.33017s.8903-.12381 1.2387-.33017c1.6258.5778 2.4387 1.60957 2.4387 3.09532 0 .45398-.0774.78415-.2322.90796z"/><path d="m13.9354 18.3657c.3871-.4952.6194-1.1143.6194-1.7746 0-1.4858-1.1613-2.7239-2.5548-2.7239-1.3936 0-2.55489 1.2381-2.55489 2.7239 0 .6603.23226 1.2794.61939 1.7746-1.66455.7429-2.51616 2.0223-2.51616 3.7144 0 .7429.15484 1.2381.50323 1.5683.58064.5365 1.81935.2889 2.24513.2063.5033-.0825 1.1226-.165 1.7033-.165.6193 0 1.2.0825 1.7032.165.929.1651 1.7032.2889 2.2451-.2063.3484-.2889.5033-.8254.5033-1.5683 0-1.6921-.8516-2.9715-2.5162-3.7144zm-1.9354-3.6731c.9677 0 1.7806.8667 1.7806 1.8985 0 1.0317-.8129 1.8984-1.7806 1.8984-.9678 0-1.7807-.8667-1.7807-1.8984 0-1.0318.8129-1.8985 1.7807-1.8985zm3.4451 8.3367c-.271.2476-.8903.1238-1.6258 0-.5419-.0825-1.1613-.2063-1.8193-.2063-.6581 0-1.2775.0825-1.8194.2063-.73549.1238-1.35484.2064-1.62581 0-.15484-.1238-.23226-.454-.23226-.9079 0-1.5271.81291-2.5176 2.43867-3.0954.3484.2064.7742.3302 1.2388.3302.4645 0 .8903-.1238 1.2387-.3302 1.6258.5778 2.4387 1.6096 2.4387 3.0954 0 .4539-.0774.7428-.2323.9079z"/><path d="m16.0646 18.3243.3871.7429c2.8645-1.6509 4.6838-4.8287 4.8387-8.2542l-.7742-.0413c-.1161 3.1366-1.8194 6.0256-4.4516 7.5526z"/><path d="m11.9999 1.27927c1.4323 0 2.8258.37144 4.0646 1.11432l.3871-.74288c-1.3549-.784144-2.8646-1.196853-4.413-1.196853-1.5483 0-3.09673.412709-4.45156 1.196853l.38709.74288c1.2-.74288 2.59357-1.11432 4.02577-1.11432z"/><path d="m8.28391 18.5307c-2.82581-1.4445-4.64516-4.416-4.8-7.759l-.77419.0413c.15484 3.6318 2.16774 6.8922 5.2258 8.5018z"/><path d="m12.3871 9.12085h-.7742v.82542h.7742z"/><path d="m13.9354 9.12085h-.7741v.82542h.7741z"/><path d="m10.8388 9.12085h-.7742v.82542h.7742z"/></g></svg>