<svg fill="none" height="40" viewBox="0 0 40 40" width="40" xmlns="http://www.w3.org/2000/svg"><path d="m33.2351 24.6076v-13.4864c0-1.25473-1.082-2.2712-2.384-2.2712h-21.70216c-1.30204 0-2.38405 1.01647-2.38405 2.2712v13.4864h-1.12659c-.21433 0-.40936.095-.5498.2315-.13974.1358-.23661.3238-.23849.5231h-.00001v.0014 1.2122c0 .7021.30005 1.5867.77577 2.2954.47264.704 1.15024 1.2788 1.92742 1.2788h24.89361c.7772 0 1.4548-.5748 1.9274-1.2788.4758-.7087.7758-1.5933.7758-2.2954v-1.2122c0-.4074-.3787-.756-.7883-.756zm-24.08616-14.2455h21.70216c.466 0 .8074.3351.8074.7591v13.4864h-23.31701v-13.4864c0-.424.3414-.7591.80745-.7591zm-2.72234 15.7576h27.1468v.4561c0 .312-.1313.8423-.3536 1.2957-.1105.2254-.2391.4224-.3768.5608-.1388.1394-.2723.2056-.3962.2056h-24.89361c-.12388 0-.25744-.0662-.39616-.2056-.13775-.1384-.26629-.3354-.37681-.5608-.22234-.4534-.35362-.9837-.35362-1.2957z" fill="#c5c9d3" stroke="#c5c9d3" stroke-width=".3"/></svg>