<svg fill="none" height="24" viewBox="0 0 25 24" width="25" xmlns="http://www.w3.org/2000/svg"><path d="m8.48454 24h.14801c.07659 0 .15213-.0121.22064-.0353.0685-.0233.12809-.057.17405-.0986l15.54076-15.36378c.0549-.04972.0884-.10886.0966-.17077.0083-.06191-.0091-.12415-.0501-.17975-.0409-.0556-.1039-.10236-.1819-.13504-.0779-.03268-.1677-.04999-.2593-.04999h-9.9165l3.2562-7.53127c.0239-.051399.0292-.105957.0153-.159034-.0138-.053078-.0463-.103105-.0948-.145827-.0484-.0427229-.1113-.0768773-.1834-.0995592-.0721-.02268195-.1511-.03322021-.2305-.03071923h-10.85383c-.10882-.00338011-.21624.01777213-.30548.06015703-.08925.0423844-.15531.1036184-.18788.1741494l-4.982892 12.016533c-.023919.0514-.029189.106-.015362.1591.013827.053.046342.1031.09478.1458s.111367.0769.183435.0995c.072069.0227.151149.0333.230499.0308h8.48573l-1.48007 10.9789c-.00846.0698.01554.1396.06865.1996.0531.0601.13262.1073.22736.1351zm2.22006-11.6484c.007-.0466-.0007-.0938-.0223-.1384-.0217-.0445-.057-.0855-.1035-.1202s-.1033-.0624-.1666-.0813-.1318-.0285-.2009-.0283h-8.38706l4.68688-11.313593h9.86708l-3.2561 7.564743c-.0239.0514-.0292.10595-.0154.15903.0139.05308.0464.1031.0948.14583.0484.04272.1114.07688.1834.09956.0721.02268.1512.03322.2305.03072h9.6205l-13.91265 13.75711z" fill="#33b4ff"/></svg>