<svg fill="none" height="40" viewBox="0 0 40 40" width="40" xmlns="http://www.w3.org/2000/svg"><path d="m7.49993 31.6666-1.08572-.4343c-.14412.3603-.10012.7686.11742 1.09.21753.3211.58028.5136.9683.5136zm24.16667 0v1.1693c.4053 0 .7817-.2098.9947-.5545.2131-.3448.2325-.7753.0511-1.1378zm-21.0484-15.5914h-1.16936c0 .4413.2485.845.64246 1.0439.3941.1988.8665.159 1.2215-.1032zm17.1506 0-.7015.9356c.3543.2656.8285.3083 1.2245.1103.3961-.1982.6463-.603.6463-1.0459zm-20.26887 16.7607h24.16667v-2.3386h-24.16667zm24.16667-1.1693c1.0458-.523 1.0462-.5223 1.0458-.523 0-.0002-.0008-.0017-.001-.0022-.0005-.0008-.0008-.0016-.0015-.0028-.001-.0022-.0023-.0047-.004-.0078-.0031-.0062-.0071-.0144-.0123-.0242-.0102-.0197-.0243-.0467-.0425-.0805-.0362-.0675-.0883-.1622-.1565-.28-.1365-.2357-.3377-.5652-.6055-.9573-.5347-.7824-1.3415-1.8237-2.4368-2.8669-2.1927-2.0881-5.5852-4.2203-10.2589-4.2203v2.3387c3.9017 0 6.7457 1.7656 8.6459 3.5753.9511.9057 1.6546 1.8133 2.1188 2.4927.2315.3388.4018.6183.5122.809.055.0951.095.168.1201.2148.0125.0233.0212.04.0264.0498.0025.0049.004.008.0046.0094-.0001-.0005-.0006-.0017 1.0452-.5247zm-12.4732-8.965c-4.6854 0-7.8976 2.1432-9.91021 4.2618-1.0016 1.0544-1.71138 2.1062-2.17211 2.8959-.23094.396-.401.729-.5152.9676-.05715.1194-.10044.2154-.13049.2842-.01501.0345-.02675.062-.03525.0825-.00425.0102-.0077.0185-.01035.025-.00133.0032-.00245.006-.00338.0083-.00047.0012-.00088.0022-.00125.003.0001-.0003-.00018.0005 0 0-.00022.0005-.00095.0024 1.08477.4367 1.08571.4343 1.08553.4348 1.08535.4352.00008-.0002-.00005.0001 0 0-.00017.0003-.0006.0015-.00069.0018-.0002.0005-.00016.0003 0 0 .00042-.001.00162-.004.00354-.0087.00381-.009.01065-.0251.02055-.0478.01981-.0455.0519-.1168.09676-.2107.08984-.1876.23039-.4636.42577-.7986.39193-.6719.99769-1.569 1.84759-2.4637 1.6903-1.7792 4.3249-3.5338 8.2146-3.5338zm1.1694 1.1693v-7.7957h-2.3387v7.7957zm-.4679-8.7313c-1.6995-1.2741-3.2889-2.0434-4.9995-2.0359-1.7057.0075-3.2873.787-4.97179 2.0308l1.38919 1.8814c1.5379-1.1355 2.6257-1.5692 3.5929-1.5735.9623-.0042 2.0494.4161 3.5864 1.5684zm8.5754 0c-1.6995-1.2741-3.289-2.0434-4.9995-2.0359-1.7059.0075-3.2874.787-4.9719 2.0308l1.3892 1.8814c1.5378-1.1355 2.6257-1.5692 3.5928-1.5735.9624-.0042 2.0494.4161 3.5864 1.5684zm-.7015.9356c1.1693 0 1.1693.0006 1.1693 0 0-.0002 0-.0022 0-.0027 0-.001 0-.0022 0-.0034 0-.0026 0-.0057 0-.0094-.0002-.0072-.0002-.0166-.0003-.028-.0005-.0227-.0012-.0534-.0024-.0917-.0026-.0766-.0075-.1836-.017-.3166-.019-.2655-.0563-.6373-.1301-1.0803-.1469-.8805-.4425-2.0724-1.0455-3.2785-.6054-1.2106-1.5317-2.45682-2.943-3.39775-1.4189-.94582-3.2579-1.53628-5.6064-1.53628v2.3387c1.9392 0 3.3159.48145 4.309 1.1435 1.0004.66693 1.6819 1.56453 2.1485 2.49773.4689.9378.7092 1.8897.8304 2.6171.0601.3609.0898.6591.1043.8625.0073.1015.0107.1788.0123.2278.0009.0245.0012.0418.0014.0516.0001.0048.0001.0078.0001.0088 0-.0003 0-.0019 0-.0021 0-.0005 0-.001 1.1694-.001zm-8.5754-9.74463c-2.3483 0-4.1874.59046-5.6061 1.53628-1.4114.94093-2.3378 2.18715-2.9431 3.39775-.603 1.2061-.89869 2.398-1.04546 3.2785-.07383.443-.1112.8148-.13016 1.0803-.0095.133-.01444.24-.01699.3166-.00128.0383-.00196.069-.00233.0917-.00018.0114-.00028.0208-.00033.028-.00004.0037-.00005.0068-.00007.0094v.0034c0-.0002 0 .0005 0 0-.00002.0007-.00002.0027 1.16934.0027 1.1694 0 1.1694.0005 1.1694.001 0-.0002 0 .0002 0 0v.0021c0 .0005 0 .0005 0 0 0-.001 0-.004.0001-.0088.0001-.0098.0005-.0271.0013-.0516.0016-.049.0051-.1263.0123-.2278.0146-.2034.0442-.5016.1043-.8625.1213-.7274.3615-1.6793.8304-2.6171.4666-.9332 1.1481-1.8308 2.1485-2.49773.9931-.66205 2.3698-1.1435 4.3089-1.1435z" fill="#33b4ff"/></svg>