<svg fill="none" height="40" viewBox="0 0 40 40" width="40" xmlns="http://www.w3.org/2000/svg"><g stroke="#747af6" stroke-linecap="round" stroke-linejoin="round"><path d="m7.91675 24.5833v4.1667c0 1.841 1.49238 3.3333 3.33335 3.3333h17.5c1.841 0 3.3333-1.4923 3.3333-3.3333v-4.1667c0-1.841-1.4923-3.3333-3.3333-3.3333h-17.5c-1.84097 0-3.33335 1.4923-3.33335 3.3333z" stroke-width="2.5"/><path d="m14.1667 26.6666c0 .4602-.3731.8333-.8334.8333-.4602 0-.8333-.3731-.8333-.8333s.3731-.8333.8333-.8333c.4603 0 .8334.3731.8334.8333z" stroke-width="1.66667"/><path d="m19.1667 26.6666c0 .4602-.3732.8333-.8334.8333-.4601 0-.8333-.3731-.8333-.8333s.3732-.8333.8333-.8333c.4602 0 .8334.3731.8334.8333z" stroke-width="1.66667"/><g stroke-width="2.5"><path d="m20 20.8334v-2.9167"/><path d="m16.1687 14.5032c2.1154-2.1153 5.5451-2.1153 7.6604 0"/><path d="m12.6335 10.9677c4.0679-4.06794 10.6634-4.06794 14.7314 0"/></g></g></svg>