<svg fill="none" height="24" viewBox="0 0 24 24" width="24" xmlns="http://www.w3.org/2000/svg" xmlns:xlink="http://www.w3.org/1999/xlink"><mask id="a" fill="#fff"><path d="m16.1538 0h-14.76918c-.761543 0-1.38462.623077-1.38462 1.38462v14.76918c0 .7616.623077 1.3847 1.38462 1.3847h1.38461v-.9231h-1.38461c-.25385 0-.461543-.2077-.461543-.4616v-14.76918c0-.25385.207693-.461543.461543-.461543h14.76918c.2539 0 .4616.207693.4616.461543v5.07692h-8.76925c-.76153 0-1.38461.62308-1.38461 1.38461v8.76925h-.92308v.9231h.92308v5.0769c0 .7615.62308 1.3846 1.38461 1.3846h14.76925c.7615 0 1.3846-.6231 1.3846-1.3846v-14.76925c0-.76153-.6231-1.38461-1.3846-1.38461h-5.0769v-5.07692c0-.761543-.6231-1.38462-1.3847-1.38462zm-3.6923 11.5385v-1.84619h1.8462v1.84619zm1.8462.923v1.8462h-1.8462v-1.8462zm-1.8462-3.69227v-1.38461h1.8462v1.38461zm-.923 0h-1.84619v-1.38461h1.84619zm0 .92308v1.84619h-1.84619v-1.84619zm-2.76927 1.84619h-1.38461v-1.84619h1.38461zm0 .923v1.8462h-1.38461v-1.8462zm.92308 0h1.84619v1.8462h-1.84619zm1.84619 2.7693v1.3846h-1.84619v-1.3846zm.923 0h1.8462v1.3846h-1.8462zm2.7693 0h1.3846v.923c0 .2539-.2077.4616-.4616.4616h-.923zm1.3846-.9231h-1.3846v-1.8462h1.3846zm0-2.7692h-1.3846v-1.84619h1.3846zm0-2.76927h-1.3846v-1.38461h1.3846zm-8.76925-1.38461h.92308v1.38461h-1.38461v-.92308c0-.25384.20769-.46153.46153-.46153zm-.46153 7.84618h1.38461v1.3846h-1.38461zm15.23078-7.84618c.2538 0 .4615.20769.4615.46153v14.76925c0 .2538-.2077.4615-.4615.4615h-14.76925c-.25384 0-.46153-.2077-.46153-.4615v-5.0769h8.76918c.7616 0 1.3847-.6231 1.3847-1.3847v-8.76918z" fill="#fff"/></mask><path d="m16.1538 0h-14.76918c-.761543 0-1.38462.623077-1.38462 1.38462v14.76918c0 .7616.623077 1.3847 1.38462 1.3847h1.38461v-.9231h-1.38461c-.25385 0-.461543-.2077-.461543-.4616v-14.76918c0-.25385.207693-.461543.461543-.461543h14.76918c.2539 0 .4616.207693.4616.461543v5.07692h-8.76925c-.76153 0-1.38461.62308-1.38461 1.38461v8.76925h-.92308v.9231h.92308v5.0769c0 .7615.62308 1.3846 1.38461 1.3846h14.76925c.7615 0 1.3846-.6231 1.3846-1.3846v-14.76925c0-.76153-.6231-1.38461-1.3846-1.38461h-5.0769v-5.07692c0-.761543-.6231-1.38462-1.3847-1.38462zm-3.6923 11.5385v-1.84619h1.8462v1.84619zm1.8462.923v1.8462h-1.8462v-1.8462zm-1.8462-3.69227v-1.38461h1.8462v1.38461zm-.923 0h-1.84619v-1.38461h1.84619zm0 .92308v1.84619h-1.84619v-1.84619zm-2.76927 1.84619h-1.38461v-1.84619h1.38461zm0 .923v1.8462h-1.38461v-1.8462zm.92308 0h1.84619v1.8462h-1.84619zm1.84619 2.7693v1.3846h-1.84619v-1.3846zm.923 0h1.8462v1.3846h-1.8462zm2.7693 0h1.3846v.923c0 .2539-.2077.4616-.4616.4616h-.923zm1.3846-.9231h-1.3846v-1.8462h1.3846zm0-2.7692h-1.3846v-1.84619h1.3846zm0-2.76927h-1.3846v-1.38461h1.3846zm-8.76925-1.38461h.92308v1.38461h-1.38461v-.92308c0-.25384.20769-.46153.46153-.46153zm-.46153 7.84618h1.38461v1.3846h-1.38461zm15.23078-7.84618c.2538 0 .4615.20769.4615.46153v14.76925c0 .2538-.2077.4615-.4615.4615h-14.76925c-.25384 0-.46153-.2077-.46153-.4615v-5.0769h8.76918c.7616 0 1.3847-.6231 1.3847-1.3847v-8.76918z" fill="#c5c9d3" mask="url(#a)" stroke="#33b4ff" stroke-width="2"/></svg>