<?xml version="1.0" encoding="utf-8"?>
<!-- Generator: Adobe Illustrator 27.5.0, SVG Export Plug-In . SVG Version: 6.00 Build 0)  -->
<svg version="1.1" id="Layer_1" xmlns="http://www.w3.org/2000/svg" xmlns:xlink="http://www.w3.org/1999/xlink" x="0px" y="0px"
	 viewBox="0 0 98 28" style="enable-background:new 0 0 98 28;" xml:space="preserve">
<style type="text/css">
	.st0{fill:#FFFFFF;}
</style>
<path class="st0" d="M9.7,17.7c2,0,3.7-1.6,3.7-3.7s-1.6-3.7-3.7-3.7C7.7,10.3,6,12,6,14S7.7,17.7,9.7,17.7z"/>
<path class="st0" d="M6.1,23.8v-3h9.7c0.3,0,0.6-0.3,0.6-0.6V4.2h3.1v18.3c0,1.2-1.3,1.2-1.3,1.2L6.1,23.8L6.1,23.8z"/>
<path class="st0" d="M13.4,4.2v3H3.7c-0.3,0-0.6,0.3-0.6,0.6v15.9H0V5.5c0-1.2,1.3-1.2,1.3-1.2H13.4z"/>
<path class="st0" d="M29.3,26V7.3h2.4v1.9c0.6-0.8,1-1.1,1.7-1.6C34.1,7.2,35,7,35.9,7c1.2,0,2.3,0.3,3.3,0.9c1,0.6,1.8,1.5,2.4,2.5
	c0.6,1.1,0.9,2.2,0.9,3.5s-0.3,2.4-0.9,3.4c-0.6,1.1-1.4,1.9-2.3,2.6c-1,0.7-2.1,1-3.3,1c-0.9,0-1.8-0.2-2.5-0.7
	c-0.7-0.5-1.2-0.8-1.7-1.5V26H29.3L29.3,26z M35.8,18.7c1.3,0,2.4-0.5,3.1-1.4c0.8-0.9,1.1-2,1.1-3.4s-0.4-2.5-1.2-3.4
	c-0.8-0.9-1.8-1.3-3.1-1.3c-1.3,0-2.4,0.4-3.1,1.3c-0.7,0.9-1.1,2-1.1,3.5c0,1.4,0.4,2.5,1.1,3.4C33.4,18.3,34.5,18.7,35.8,18.7
	L35.8,18.7z"/>
<path class="st0" d="M64,20.7h-2.3v-1.9c-0.2,0.3-0.7,0.8-1.4,1.3c-0.7,0.5-1.7,0.9-2.9,0.9c-1.5,0-2.7-0.5-3.5-1.6
	c-0.8-1.1-1.2-2.5-1.2-4.2V7.3h2.4v7.3c0,1.2,0.3,2.1,0.8,2.9c0.5,0.8,1.3,1.2,2.3,1.2c1.2,0,2-0.4,2.7-1.2c0.6-0.8,0.9-1.9,0.9-3.3
	V7.3H64L64,20.7L64,20.7z"/>
<path class="st0" d="M67.1,20.7V7.3h2.4v2c0.4-0.7,1-1.2,1.7-1.6c0.7-0.4,1.5-0.7,2.6-0.7c0.4,0,0.7,0.1,1.1,0.2v2.3
	c-0.4-0.1-0.8-0.1-1.1-0.1c-2.8,0-4.2,1.8-4.2,5.3v5.9H67.1L67.1,20.7z"/>
<path class="st0" d="M86.4,20.7v-1.9c-0.4,0.6-1,1-1.7,1.5c-0.7,0.5-1.6,0.7-2.5,0.7c-1.2,0-2.3-0.3-3.3-1c-1-0.7-1.8-1.5-2.3-2.6
	c-0.6-1.1-0.9-2.2-0.9-3.4c0-1.2,0.3-2.4,0.9-3.5c0.6-1.1,1.4-1.9,2.4-2.5c1-0.6,2.1-0.9,3.3-0.9c0.9,0,1.8,0.2,2.5,0.7
	c0.7,0.5,1.2,0.7,1.7,1.6V7.3h2.3v13.4H86.4z M85.3,17.4c0.7-0.9,1.1-2,1.1-3.4c0-1.4-0.4-2.6-1.1-3.5c-0.7-0.9-1.8-1.3-3.1-1.3
	c-1.3,0-2.3,0.4-3.1,1.3c-0.8,0.9-1.2,2-1.2,3.4s0.4,2.5,1.1,3.4c0.8,0.9,1.8,1.4,3.1,1.4C83.5,18.7,84.6,18.3,85.3,17.4z"/>
<path class="st0" d="M50.7,18.4v2.2h-4.2c0,0-1.6,0-1.6-1.5V2h2.4v15.7c0,0.4,0.3,0.8,0.8,0.8L50.7,18.4L50.7,18.4z"/>
<path class="st0" d="M97.6,18.4v2.2h-4.2c0,0-1.6,0-1.6-1.5V2h2.4v15.7c0,0.4,0.3,0.8,0.8,0.8L97.6,18.4L97.6,18.4z"/>
</svg>
