<svg enable-background="new 0 0 98 28" viewBox="0 0 98 28" xmlns="http://www.w3.org/2000/svg"><g fill="#fff"><path d="m9.7 17.7c2 0 3.7-1.6 3.7-3.7s-1.6-3.7-3.7-3.7c-2 0-3.7 1.7-3.7 3.7s1.7 3.7 3.7 3.7z"/><path d="m6.1 23.8v-3h9.7c.3 0 .6-.3.6-.6v-16h3.1v18.3c0 1.2-1.3 1.2-1.3 1.2z"/><path d="m13.4 4.2v3h-9.7c-.3 0-.6.3-.6.6v15.9h-3.1v-18.2c0-1.2 1.3-1.2 1.3-1.2h12.1z"/><path d="m29.3 26v-18.7h2.4v1.9c.6-.8 1-1.1 1.7-1.6.7-.4 1.6-.6 2.5-.6 1.2 0 2.3.3 3.3.9s1.8 1.5 2.4 2.5c.6 1.1.9 2.2.9 3.5s-.3 2.4-.9 3.4c-.6 1.1-1.4 1.9-2.3 2.6-1 .7-2.1 1-3.3 1-.9 0-1.8-.2-2.5-.7s-1.2-.8-1.7-1.5v7.3zm6.5-7.3c1.3 0 2.4-.5 3.1-1.4.8-.9 1.1-2 1.1-3.4s-.4-2.5-1.2-3.4-1.8-1.3-3.1-1.3-2.4.4-3.1 1.3-1.1 2-1.1 3.5c0 1.4.4 2.5 1.1 3.4.8.9 1.9 1.3 3.2 1.3z"/><path d="m64 20.7h-2.3v-1.9c-.2.3-.7.8-1.4 1.3s-1.7.9-2.9.9c-1.5 0-2.7-.5-3.5-1.6s-1.2-2.5-1.2-4.2v-7.9h2.4v7.3c0 1.2.3 2.1.8 2.9s1.3 1.2 2.3 1.2c1.2 0 2-.4 2.7-1.2.6-.8.9-1.9.9-3.3v-6.9h2.2z"/><path d="m67.1 20.7v-13.4h2.4v2c.4-.7 1-1.2 1.7-1.6s1.5-.7 2.6-.7c.4 0 .7.1 1.1.2v2.3c-.4-.1-.8-.1-1.1-.1-2.8 0-4.2 1.8-4.2 5.3v5.9h-2.5z"/><path d="m86.4 20.7v-1.9c-.4.6-1 1-1.7 1.5s-1.6.7-2.5.7c-1.2 0-2.3-.3-3.3-1s-1.8-1.5-2.3-2.6c-.6-1.1-.9-2.2-.9-3.4s.3-2.4.9-3.5 1.4-1.9 2.4-2.5 2.1-.9 3.3-.9c.9 0 1.8.2 2.5.7s1.2.7 1.7 1.6v-2.1h2.3v13.4zm-1.1-3.3c.7-.9 1.1-2 1.1-3.4s-.4-2.6-1.1-3.5-1.8-1.3-3.1-1.3-2.3.4-3.1 1.3-1.2 2-1.2 3.4.4 2.5 1.1 3.4c.8.9 1.8 1.4 3.1 1.4 1.4 0 2.5-.4 3.2-1.3z"/><path d="m50.7 18.4v2.2h-4.2s-1.6 0-1.6-1.5v-17.1h2.4v15.7c0 .4.3.8.8.8z"/><path d="m97.6 18.4v2.2h-4.2s-1.6 0-1.6-1.5v-17.1h2.4v15.7c0 .4.3.8.8.8z"/></g></svg>