<svg width="1402" height="1006" viewBox="0 0 1402 1006" fill="none" xmlns="http://www.w3.org/2000/svg">
<g opacity="0.6">
<path d="M1401 503C1401 641.697 1322.71 767.31 1196.04 858.269C1069.37 949.226 894.345 1005.5 701 1005.5C507.655 1005.5 332.635 949.226 205.963 858.269C79.2911 767.31 1 641.697 1 503C1 364.303 79.2911 238.69 205.963 147.731C332.635 56.7739 507.655 0.5 701 0.5C894.345 0.5 1069.37 56.7739 1196.04 147.731C1322.71 238.69 1401 364.303 1401 503Z" stroke="url(#paint0_linear_3388_8508)"/>
<path opacity="0.5" d="M1311 503C1311 618.215 1242.79 722.577 1132.41 798.158C1022.02 873.737 869.497 920.5 701 920.5C532.503 920.5 379.979 873.737 269.594 798.158C159.206 722.577 91 618.215 91 503C91 387.785 159.206 283.423 269.594 207.842C379.979 132.263 532.503 85.5 701 85.5C869.497 85.5 1022.02 132.263 1132.41 207.842C1242.79 283.423 1311 387.785 1311 503Z" stroke="url(#paint1_linear_3388_8508)"/>
<path opacity="0.25" d="M1150 503C1150 590.331 1099.81 669.444 1018.56 726.744C937.307 784.044 825.035 819.5 701 819.5C576.965 819.5 464.693 784.044 383.444 726.744C302.193 669.444 252 590.331 252 503C252 415.669 302.193 336.556 383.444 279.256C464.693 221.956 576.965 186.5 701 186.5C825.035 186.5 937.307 221.956 1018.56 279.256C1099.81 336.556 1150 415.669 1150 503Z" stroke="url(#paint2_linear_3388_8508)"/>
</g>
<defs>
<linearGradient id="paint0_linear_3388_8508" x1="701" y1="-78.6138" x2="701" y2="437" gradientUnits="userSpaceOnUse">
<stop stop-color="white" stop-opacity="0"/>
<stop offset="0.5" stop-color="white" stop-opacity="0.3"/>
<stop offset="1" stop-color="white" stop-opacity="0"/>
</linearGradient>
<linearGradient id="paint1_linear_3388_8508" x1="701" y1="38.4032" x2="701.516" y2="371" gradientUnits="userSpaceOnUse">
<stop stop-color="white" stop-opacity="0"/>
<stop offset="0.5" stop-color="white"/>
<stop offset="1" stop-color="white" stop-opacity="0"/>
</linearGradient>
<linearGradient id="paint2_linear_3388_8508" x1="701" y1="67.6332" x2="701.531" y2="320" gradientUnits="userSpaceOnUse">
<stop stop-color="white" stop-opacity="0"/>
<stop offset="0.5" stop-color="white"/>
<stop offset="1" stop-color="white" stop-opacity="0"/>
</linearGradient>
</defs>
</svg>
