<svg enable-background="new 0 0 245.4 38.7" viewBox="0 0 245.4 38.7" xmlns="http://www.w3.org/2000/svg"><path d="m58.4 16.9c1 0 1.9-.2 2.7-.6s1.6-1 2.2-1.8l2.6 2.7c-2 2.3-4.4 3.4-7.2 3.4-1.3.1-2.5-.1-3.7-.6-1.2-.4-2.2-1.1-3.2-2-.9-.8-1.6-1.9-2-3s-.7-2.4-.6-3.6c-.1-1.2.2-2.5.6-3.6s1.1-2.2 2-3.1c1-.9 2.1-1.6 3.3-2s2.6-.6 3.9-.6c1.3.1 2.6.4 3.8 1s2.2 1.4 3.1 2.4l-2.5 2.9c-.6-.8-1.3-1.3-2.1-1.7s-1.7-.6-2.7-.6c-1.4 0-2.8.5-3.9 1.5-.6.5-1 1.1-1.3 1.8s-.4 1.5-.4 2.2c-.1.8.1 1.5.3 2.2.3.7.6 1.3 1.2 1.8 1.2.8 2.5 1.3 3.9 1.3zm10.6 3.5v-17.9h4v14.4h7.7v3.6h-11.7zm29.4-2.5c-1.9 1.7-4.2 2.7-6.8 2.7s-4.9-1-6.8-2.7c-.9-.8-1.6-1.8-2-3-.4-1.1-.7-2.4-.7-3.6-.1-1.2.2-2.5.6-3.6s1.1-2.2 2-3c1.9-1.7 4.2-2.7 6.8-2.7s4.9 1 6.8 2.7c.9.8 1.6 1.8 2 3 .4 1.1.7 2.4.6 3.6.1 1.2-.2 2.5-.6 3.6-.3 1.2-1 2.2-1.9 3zm-1.4-6.5c0-1.5-.6-3-1.6-4.1-.5-.5-1.1-1-1.7-1.3s-1.4-.4-2.1-.4-1.4.1-2.1.4c-.6.3-1.3.7-1.7 1.3-1 1.1-1.6 2.6-1.6 4.1s.6 3 1.6 4.1c.5.5 1.1 1 1.7 1.3s1.4.4 2.1.4 1.4-.1 2.1-.4c.6-.3 1.3-.7 1.7-1.3.5-.6 1-1.2 1.2-1.9.3-.7.4-1.4.4-2.2zm12.3 4.4c.3.4.8.8 1.2 1s1 .3 1.5.3 1-.1 1.5-.3c.4-.2.9-.6 1.1-1 .7-1 1-2.2 1-3.4v-9.9h4v10.1c0 2.6-.7 4.6-2.2 6-.8.7-1.6 1.3-2.6 1.6-1 .4-2 .5-3 .5s-2-.1-3-.5-1.9-.9-2.6-1.6c-1.5-1.4-2.2-3.4-2.2-6v-10.1h4v9.9c.2 1.3.6 2.5 1.3 3.4zm28.4-11c1.7 1.6 2.6 3.8 2.6 6.6s-.8 5-2.5 6.7-4.3 2.4-7.7 2.4h-6.3v-18h6.4c3.3 0 5.8.7 7.5 2.3zm-2.9 10.7c1-.9 1.5-2.3 1.5-4.1s-.5-3.1-1.5-4.1-2.5-1.5-4.5-1.5h-2.3v10.9h2.6c1.5.3 3-.2 4.2-1.2zm28.5-13h4v18h-4l-8.6-11.3v11.3h-4v-18h3.8l8.9 11.6v-11.6zm21.3 17.9-1.7-3.9h-7.6l-1.7 3.9h-4.3l7.8-18h3.9l7.9 18zm-5.4-12.6-2.2 5.2h4.5zm18.2-1.8v14.5h-4v-14.5h-5.1v-3.5h14.3v3.5zm8-3.5h4v18h-4c0-.1 0-18 0-18zm15.2 11.4 4.6-11.5h4.4l-7.2 18h-3.4l-7.2-18h4.4zm24.1-11.4v3.5h-9v3.7h8.1v3.4h-8.1v3.8h9.3v3.6h-13.3v-18zm-191 33.3c.5 0 1-.1 1.5-.3.4-.3.9-.6 1.2-1l1.5 1.5c-.5.6-1.1 1.1-1.9 1.4-.7.3-1.5.5-2.2.5s-1.4-.1-2-.3c-.6-.3-1.3-.6-1.8-1.1-.5-.4-.9-1-1.1-1.7-.3-.6-.4-1.3-.4-2s.1-1.4.4-2 .6-1.2 1.1-1.7 1.1-.9 1.7-1.1c.6-.3 1.3-.4 2-.4.8 0 1.6.1 2.3.4s1.3.8 1.9 1.4l-1.4 1.6c-.3-.4-.7-.8-1.1-1-.4-.3-1-.3-1.5-.3-.8 0-1.6.3-2.2.8-.3.3-.6.6-.7 1s-.3.8-.2 1.2c0 .4.1.8.2 1.2s.4.8.6 1c.3.3.6.5 1 .6s.7.3 1.1.3zm14.3.5c-1 1-2.4 1.5-3.8 1.5-.7 0-1.4-.1-2-.4s-1.2-.6-1.7-1.1c-1-1-1.5-2.3-1.5-3.7s.6-2.7 1.5-3.7c1-1 2.4-1.5 3.8-1.5.7 0 1.4.1 2 .4s1.2.6 1.7 1.1c1 1 1.5 2.3 1.5 3.7s-.6 2.8-1.5 3.7zm-.7-3.7c0-.8-.3-1.7-.8-2.3-.3-.3-.6-.5-1-.7s-.8-.3-1.1-.3-.8.1-1.1.3c-.4.2-.7.4-1 .8-.3.3-.5.6-.6 1.1-.1.4-.2.8-.2 1.2 0 .8.3 1.7.8 2.3.3.3.6.5 1 .7s.8.3 1.1.3.8-.1 1.1-.3c.4-.2.7-.4 1-.8.5-.5.8-1.4.8-2.3zm13.2-1.2-2.7 5.5h-1.3l-2.7-5.5v6.4h-2.2v-10.1h3.1l2.6 5.5 2.6-5.5h3.1v10.1h-2.2zm11.8-2.8c.4.3.7.8.9 1.3s.3 1 .2 1.5c0 1.3-.4 2.2-1.1 2.7-.7.6-1.9.8-3.3.8h-1.3v2.8h-2.3v-10h3.6c1.4 0 2.5.3 3.3.9zm-1.7 4c.3-.4.4-.8.4-1.3 0-.3 0-.4-.1-.7-.1-.2-.3-.4-.4-.5-.5-.3-1.1-.4-1.7-.4h-1.3v3.3h1.5c.3 0 .6 0 .8-.1.3-.1.6-.2.8-.3zm7.2 2.5c.2.3.4.4.7.5s.6.2.8.2c.3 0 .6-.1.8-.2.3-.1.5-.3.7-.5.4-.6.6-1.3.6-1.9v-5.6h2.2v5.6c.1.6-.1 1.2-.3 1.8s-.5 1.1-1 1.6c-.8.8-2 1.1-3.1 1.1s-2.2-.4-3.1-1.2c-.4-.4-.8-1-1-1.6s-.3-1.2-.3-1.8v-5.6h2.2v5.6c.2.7.4 1.4.8 2zm12.5-5.5v8.1h-2.3v-8.1h-2.9v-1.9h8v1.9zm4.5-1.9h2.2v10.1h-2.2zm11.8 0h2.2v10.1h-2.2l-4.8-6.3v6.3h-2.2v-10.1h2.1l5 6.5zm11.4 4.9h2.2v3.6c-.5.6-1.2 1-1.9 1.3s-1.5.4-2.3.4c-1.4 0-2.7-.5-3.8-1.5-.5-.4-.9-1-1.1-1.7-.3-.6-.4-1.3-.4-2s.1-1.4.4-2 .6-1.2 1.1-1.7 1.1-.9 1.7-1.1c.6-.3 1.3-.4 2-.4 1.4 0 2.7.5 3.8 1.5l-1.2 1.7c-.3-.4-.8-.6-1.3-.8-.4-.1-.8-.3-1.2-.3-.8 0-1.6.3-2.2.8-.3.3-.6.6-.7 1.1s-.3.8-.2 1.3c0 .8.3 1.7.8 2.3.3.3.6.5.9.6s.7.2 1.1.2c.7.1 1.3-.1 1.9-.4v-2.9zm15-4.9v2h-4.7v2.2h4.4v2h-4.4v3.9h-2.2v-10.1c-.1 0 6.9 0 6.9 0zm10.5 8.6c-1 1-2.4 1.5-3.8 1.5-.7 0-1.4-.1-2-.4s-1.2-.6-1.7-1.1c-1-1-1.5-2.3-1.5-3.7s.6-2.7 1.5-3.7c1-1 2.4-1.5 3.8-1.5.7 0 1.4.1 2 .4s1.2.6 1.7 1.1c1 1 1.5 2.3 1.5 3.7s-.6 2.8-1.5 3.7zm-.8-3.7c0-.8-.3-1.7-.8-2.3-.3-.3-.6-.5-1-.7s-.8-.3-1.2-.3-.8.1-1.1.3c-.4.2-.7.4-1 .8-.3.3-.5.6-.6 1.1-.1.4-.2.8-.2 1.2 0 .8.3 1.7.8 2.3.3.3.6.5 1 .7s.8.3 1.1.3c.4 0 .8-.1 1.2-.3s.7-.4 1-.8c.3-.3.5-.6.6-1.1.1-.4.2-.7.2-1.2zm6.9 2.5c.2.3.4.4.7.5s.6.2.8.2c.3 0 .6-.1.8-.2.3-.1.5-.3.7-.5.4-.6.6-1.3.6-1.9v-5.6h2.2v5.6c.1.6-.1 1.2-.3 1.8s-.5 1.1-1 1.6c-.8.8-2 1.1-3.1 1.1s-2.2-.4-3.1-1.2c-.4-.4-.8-1-1-1.6s-.3-1.2-.3-1.8v-5.6h2.2v5.6c.2.7.4 1.5.8 2zm15.3-7.4h2.2v10.1h-2.2l-4.8-6.3v6.3h-2.2v-10.1h2.1l5 6.5zm12.4 1.3c.5.4.9 1.1 1.2 1.7s.4 1.3.3 2c.1.7-.1 1.3-.3 2-.3.6-.6 1.2-1.1 1.7-.9.9-2.4 1.4-4.3 1.4h-3.4v-10.1h3.6c1.7 0 3.1.4 4 1.3zm-1.6 6.1c.3-.3.5-.6.6-1s.2-.8.2-1.2-.1-.8-.2-1.2-.4-.8-.6-1.1c-.4-.3-.8-.5-1.2-.6s-.9-.2-1.3-.1h-1.3v6.1h1.5c.7-.2 1.6-.4 2.3-.9zm12 2.6-.9-2.2h-4.3l-.9 2.2h-2.4l4.4-10.1h2.2l4.4 10.1zm-3.1-7-1.3 2.9h2.6zm10.2-1.1v8.1h-2.2v-8.1h-2.9v-1.9h8v1.9zm4.5-1.9h2.2v10.1h-2.2zm13.3 8.6c-1 1-2.4 1.5-3.8 1.5-.7 0-1.4-.1-2-.4s-1.2-.6-1.7-1.1c-1-1-1.5-2.3-1.5-3.7s.6-2.7 1.5-3.7c1-1 2.4-1.5 3.8-1.5.7 0 1.4.1 2 .4s1.2.6 1.7 1.1c1 1 1.5 2.3 1.5 3.7s-.5 2.8-1.5 3.7zm-.7-3.7c0-.8-.3-1.7-.8-2.3-.3-.3-.6-.5-1-.7s-.8-.3-1.2-.3-.8.1-1.1.3c-.4.2-.7.4-1 .8-.3.3-.5.6-.6 1.1s-.2.8-.2 1.2c0 .8.3 1.7.8 2.3.3.3.6.5 1 .7s.8.3 1.1.3c.4 0 .8-.1 1.2-.3s.7-.4 1-.8c.5-.5.8-1.4.8-2.3zm11.2-4.9h2.2v10.1h-2.2l-4.8-6.3v6.3h-2.3v-10.1h2.1l5 6.5c.1 0 0-6.5 0-6.5z"/><path d="m0 0v12.9h5.6l-.1-.1v-7.3h7.5v-5.5zm26 0v5.5h7.4v7.4h5.6v-12.9zm-26 25.8v12.9h13v-5.5h-7.4v-7.4zm39 0-5.6.1v7.3h-7.4v5.5h13z" fill="#0086ff"/><path d="m13 0v5.5l7.4 7.4h4.9l-7.4-7.4h8.1v-5.5zm-13 12.9v12.9h5.6v-8l7.4 7.4v-4.9l-7.3-7.3h-5.7zm33.4 0v8l-1.3-1.3-6.1-6.1v4.9l3.6 3.6 3.7 3.7h5.7v-12.8zm-19.7 12.9 6.1 6.1 1.2 1.3h-8v5.5h13v-5.6l-3.7-3.6-3.7-3.7z" fill="#93eaff"/></svg>