<svg fill="none" height="21" viewBox="0 0 20 21" width="20" xmlns="http://www.w3.org/2000/svg"><path d="m9.81345 14.1593-5.78333 4.4083c-.24167.1833-.56667-.075-.44167-.35l2.6-5.925c.05-.125.01667-.2667-.08333-.35l-5.441667-4.25834c-.216666-.16667-.099999-.525.183335-.525h5.650002c.10833 0 .19999-.05833.24999-.15l3-5.28333c.10834-.2.39162-.2.50832 0l3 5.28333c.05.09167.15.15.25.15h5.65c.275 0 .4.35.1834.525l-5.4417 4.25834c-.1083.0833-.1417.225-.0833.35l2.5999 5.925c.125.275-.2083.5333-.4416.35l-5.7833-4.4083c-.1084-.0834-.25005-.0834-.35005 0z" fill="#33b4ff"/></svg>