<svg enable-background="new 0 0 87 23" viewBox="0 0 87 23" xmlns="http://www.w3.org/2000/svg"><g clip-rule="evenodd" fill="#21242c" fill-rule="evenodd"><path d="m7.1.9h-7.1v17.1h3.3v-5.6h3.8c1.2 0 2.2-.2 3.1-.7s1.6-1.2 2.1-2c.5-.9.8-1.9.8-3s-.3-2.1-.8-3-1.2-1.5-2.1-2c-.9-.6-1.9-.8-3.1-.8zm-.1 8.5h-3.7v-5.4h3.7c.8 0 1.4.3 1.9.8s.8 1.1.8 1.9-.3 1.4-.8 2c-.5.4-1.2.7-1.9.7zm12.6 8.9c1.2 0 2.4-.3 3.4-.8s1.8-1.2 2.4-2.2c.6-.9.9-2 .9-3.2s-.3-2.3-.9-3.2c-.6-1-1.4-1.7-2.4-2.2s-2.1-.8-3.4-.8-2.4.3-3.4.8-1.8 1.2-2.4 2.2c-.6.9-.9 2-.9 3.2s.3 2.3.9 3.2 1.4 1.7 2.4 2.2 2.1.8 3.4.8zm0-3c-1 0-1.7-.3-2.3-.9s-.9-1.4-.9-2.3.3-1.7.9-2.3 1.4-.9 2.3-.9 1.7.3 2.3.9.9 1.4.9 2.3c0 1-.3 1.7-.9 2.3s-1.4.9-2.3.9zm15.7-9.4c-1.2 0-2.2.4-3.1 1.2s-1.5 1.8-1.8 3.1v-4.1h-3.2v16.3h3.2v-8.4c.3 1.3.9 2.3 1.8 3.1s1.9 1.2 3.1 1.2c.9 0 1.8-.3 2.6-.8s1.4-1.3 1.8-2.2.7-2 .7-3.2-.2-2.2-.7-3.2c-.4-.9-1.1-1.7-1.8-2.2-.8-.5-1.7-.8-2.6-.8zm-1.6 9.4c-.9 0-1.7-.3-2.3-.9s-.9-1.4-.9-2.3.3-1.7.9-2.3 1.4-.9 2.3-.9 1.7.3 2.3.9.9 1.4.9 2.3-.3 1.7-.9 2.3-1.4.9-2.3.9zm7.7 2.7h3.2v-17.1h-3.2zm14.2-11.9v4c-.3-1.3-.9-2.3-1.8-3.1s-1.9-1.2-3-1.2c-.9 0-1.8.3-2.6.8s-1.4 1.3-1.8 2.2-.7 2-.7 3.2.2 2.2.7 3.2c.4.9 1.1 1.7 1.8 2.2.8.5 1.6.8 2.6.8 1.2 0 2.2-.4 3-1.2.9-.8 1.5-1.8 1.8-3.1v4h3.2v-11.8zm-3.3 9.2c-.9 0-1.7-.3-2.3-.9s-.9-1.4-.9-2.3.3-1.7.9-2.3 1.4-.9 2.3-.9 1.7.3 2.3.9.9 1.4.9 2.3-.3 1.7-.9 2.3-1.3.9-2.3.9zm11.6-5.3v-3.9h-3.2v11.9h3.2v-6c0-.9.2-1.5.7-1.9s1.2-.6 2-.6h1.5v-3.6c-1.1 0-2 .4-2.7 1.2s-1.2 1.7-1.5 2.9z"/><path d="m76.5 1.1-7.6 7.5c-.3.3-.4.7-.4 1.1v8.3h17.9v-10.4c0-.5-.2-.9-.6-1.2l-7.3-5.4c-.6-.5-1.5-.4-2 .1z"/></g></svg>