<svg enable-background="new 0 0 51 33" viewBox="0 0 51 33" xmlns="http://www.w3.org/2000/svg"><g fill="#ebeff0"><path d="m.1 25.7c-.1-.3-.1-.5.1-.7.3-.2 49.7-.2 50 0 .2.1.2.4.1.7-.1.2-.5.2-25.1.2-24.6 0-25 0-25.1-.2zm33.5-2.1c-1.1-.3-2-1-2.5-2.2-.6-1.3-.6-1.2-.6-9.6v-7.4l.2-.6c.8-2.3 2.2-3.4 4.5-3.2.8 0 1 .1 1.6.4.8.4 1.5 1 1.9 1.9.6 1.3.6.6.6 9.1s0 8.4-.6 9.6-1.6 2-2.8 2.2c-.6 0-1.7 0-2.3-.2zm1.9-3.3c.1-.1.2-.3.3-.5.2-.4.2-.9.2-7.8v-7.3l-.2-.4c-.2-.4-.4-.6-.9-.6-.4 0-.7.2-.9.7-.2.3-.2.7-.2 7.7s0 7.3.2 7.7c.2.5.6.7 1.1.7.1-.1.3-.1.4-.2zm8.4 3.4c-1.3-.2-2.3-1-2.9-2.2-.3-.6-.5-1.6-.6-2.8-.2-1.5-.2-1.5 1.3-1.6 1.4-.1 1.7-.1 1.8 0s.1.4.2.8c.1 1.4.4 2.4.9 2.7.3.2.9.2 1.2 0 .5-.3.8-1.3.7-2.4s-.5-1.9-2.5-4.9c-.9-1.4-1.9-3-2.2-3.4-.5-1.1-1-2.4-1.1-3.3-.2-1.2.2-3 .8-4 .3-.5 1-1.2 1.5-1.5 1.7-.9 4.1-.6 5.3.6.8.8 1.3 2.3 1.4 3.9 0 .7 0 .8-.1.9s-.5.2-1.1.2c-.5 0-1.1.1-1.4.1-.6.1-.7-.1-.8-.9-.1-.9-.3-1.6-.6-1.9-.2-.3-.3-.3-.7-.3-.7 0-1.1.7-1.1 2s.3 1.9 2.5 5.1c2.8 4.1 3.3 5.5 3.2 7.8-.1 1.3-.2 2.1-.7 2.9-.6 1.1-1.6 1.9-2.8 2.1-.4.2-1.6.2-2.2.1zm-43.3-.3c-.2-.2-.2-22.4 0-22.5.2-.2 7.6-.2 7.7 0 0 .1.1.6.1 1.6 0 1.5 0 1.5-.2 1.6-.3.1-.9.1-2.3.1h-2v6.5h1.4c1 0 1.4 0 1.5.1s.1.6.1 1.6c0 1.9.1 1.8-1.7 1.8h-1.4v4.4c0 2.4 0 4.5-.1 4.6l-.1.2h-1.5c-1 .1-1.5.1-1.5 0zm19.2 0c-.2-.1-.2-22.2 0-22.5.1-.1.2-.1 2.2-.1 1.8 0 2.2 0 2.8.2 2.1.5 3.3 2 3.8 4.5.2 1.1.1 3.6-.1 4.5s-.7 1.8-1.2 2.3l-.4.4.3 1.5c.2.8.3 1.7.4 2.1.6 2.8 1.3 6.8 1.3 7-.1.2-.2.2-1.6.2s-1.5 0-1.6-.1c0-.1-.2-.8-.3-1.5s-.5-2.6-.7-4.2c-.3-1.6-.5-3.1-.6-3.5l-.1-.6h-1v4.9c0 3.7 0 4.9-.1 5-.1 0-2.8 0-3.1-.1zm4.6-12.4c.8-.6 1.2-1.9 1.1-3.7-.1-1.9-.5-2.8-1.5-3.1-.2-.1-.6-.1-.7-.1h-.3v7.3l.5-.1c.4 0 .6-.1.9-.3z"/><path d="m11.6 32.4c-.2-.1-.3-.5-.2-.7.2-.2 1.7-.2 1.9 0s.2.6-.2.7c-.2.1-1.2.1-1.5 0zm1.2-1.6c-.2-.2-.2-.4 0-.6.1-.1.3-.2 1.2-.2 1.2 0 1.5.1 1.5.5s-.1.5-1.3.5c-1-.1-1.3-.1-1.4-.2zm-.9-1.6c-.2-.2-.2-.5 0-.6 0 0 0 0 .1-.1s.4-.1.9-.1c.6 0 .7 0 .9.2s.2.5 0 .6c-.3.2-1.7.2-1.9 0zm-2-1.4c-.1-.1-.2-.2-.2-.4 0-.4.2-.5 1-.5s1.1.1 1.1.5-.2.5-1.1.5c-.3 0-.7-.1-.8-.1zm2.8-.1c-.2-.2-.2-.5.1-.7.2-.1 2.8-.2 3.1 0 .2.1.2.6 0 .7-.1.1-.4.1-1.6.1-1.3.1-1.4 0-1.6-.1zm-5.1-4.3c-.1-.1-.1-.2-.1-.3 0-.2.3-2.2 1-7 .1-.5.2-1.5.3-2.3 1.2-8.1 1.9-12.8 2-12.9.1-.2 3.8-.2 4 0 .1.1.2.5.2 1 .1.9.4 2.7.8 5.3.2.8.4 1.8.5 2.3.2 1.1 1.2 8.2 1.5 10 .5 3.3.5 3.6.4 3.8-.1.1-.3.2-1.6.2h-1.5v-.4c0-.2-.1-.6-.1-1-.1-1-.2-2-.3-3-.4-4.1-.4-4-.2-4.1.3-.1.3-.3.1-.5s-3.5-.2-3.7 0c-.1.2 0 .4.2.5s.2.1.1.7c-.2 2.5-.7 7.2-.7 7.4v.3h-1.3c-1.1.1-1.5.1-1.6 0zm4.2-9.7c0-.1.1-.5.1-1v-.7l.5-.2.5-.2.5.2.5.2v.9c0 .5.1.9.1 1 .1.1.5-.3.7-.8.4-.9.1-1.9-.8-2.5-.3-.2-.5-.3-1-.3-.6 0-.7 0-1.1.3-1.1.7-1.3 2.1-.6 3 .4.3.5.4.6.1zm1.4-.4c.2-.2.3-.6.1-.8s-.5-.2-.7 0c-.1.1-.2.3-.2.4 0 .2.3.5.5.5.1 0 .2 0 .3-.1z"/><path d="m12.7 21.7c-.1-.1-.2-.2-.2-.5 0-.5.1-.7.5-.6.2 0 .2.1.2.5.1.6-.1.8-.5.6zm0-2.2c-.1-.1-.2-.2-.2-.6s0-.5.2-.6c.4-.1.5 0 .5.6 0 .4 0 .5-.2.6-.1.1-.1.1-.3 0zm-.1-2.4c0-.2-.1-.4-.1-.5 0-.5.2-.7.5-.5.2.1.2.2.2.6 0 .5 0 .5-.3.5-.1.1-.2 0-.3-.1z"/></g></svg>