<svg fill="none" height="23" viewBox="0 0 87 23" width="87" xmlns="http://www.w3.org/2000/svg"><g clip-rule="evenodd" fill="#ebeff0" fill-rule="evenodd"><path d="m7.12259.90332h-7.12259v17.14358h3.30715v-5.5928h3.81544c1.16723 0 2.20864-.2433 3.12491-.7296.9156-.4863 1.6291-1.1672 2.1399-2.04256.5106-.87551.7659-1.88044.7659-3.01543 0-1.13452-.2553-2.13584-.7659-3.00316-.5108-.86701-1.2243-1.5442-2.1399-2.03047-.91627-.48643-1.95768-.72956-3.12491-.72956zm-.17016 8.48673h-3.64528v-5.39849h3.64528c.77815 0 1.42263.25147 1.93311.75394.5108.50262.76604 1.14285.76604 1.92101 0 .79451-.25524 1.44685-.76604 1.95765-.51048.51065-1.15496.76589-1.93311.76589zm12.62077 8.90015c1.2481 0 2.379-.259 3.3922-.7781 1.013-.5187 1.8075-1.2482 2.3832-2.1885.5752-.9402.8633-2.0184.8633-3.2344 0-1.2158-.2881-2.29372-.8633-3.23417-.5757-.93998-1.3702-1.66954-2.3832-2.18852-1.0132-.51867-2.1441-.77816-3.3922-.77816-1.2646 0-2.4037.25949-3.4166.77816-1.0133.51898-1.8116 1.24854-2.3953 2.18852-.5836.94045-.8754 2.01837-.8754 3.23417 0 1.216.2918 2.2942.8754 3.2344.5837.9403 1.382 1.6698 2.3953 2.1885 1.0129.5191 2.152.7781 3.4166.7781zm0-2.9666c-.9568 0-1.7387-.3042-2.3466-.912-.608-.6079-.912-1.3898-.912-2.3466 0-.94.304-1.7103.912-2.31025.6079-.5995 1.3898-.89972 2.3466-.89972.9241 0 1.6901.30022 2.298.89972.6078.59995.9118 1.37025.9118 2.31025 0 .9568-.3001 1.7387-.8997 2.3466-.6.6078-1.3701.912-2.3101.912zm15.709-9.43525c-1.1672 0-2.1885.39333-3.064 1.17935-.8755.78664-1.4675 1.82806-1.7751 3.1249v-4.06111h-3.1856v16.29261h3.1856v-8.4381c.3076 1.2971.8996 2.3387 1.7751 3.1247.8755.7867 1.8968 1.1795 3.064 1.1795.94 0 1.7954-.2713 2.5655-.8148.7696-.5428 1.3776-1.2845 1.8236-2.2248.4459-.9402.6689-1.994.6689-3.1614 0-1.1671-.223-2.22075-.6689-3.1612-.446-.93998-1.054-1.68165-1.8236-2.22501-.7701-.54288-1.6255-.81464-2.5655-.81464zm-1.5807 9.43525c-.9241 0-1.6983-.3078-2.3222-.9241-.6243-.6159-.9362-1.3862-.9362-2.3103 0-.9076.3119-1.6736.9362-2.29781.6239-.62403 1.3981-.93636 2.3222-.93636.9078 0 1.6696.31233 2.2859.93636.616.62421.9241 1.39021.9241 2.29781 0 .9241-.3081 1.6944-.9241 2.3103-.6163.6163-1.3781.9241-2.2859.9241zm7.7084 2.7233h3.1855v-17.14358h-3.1855zm14.1523-11.91541v3.96371c-.3243-1.26439-.9202-2.28159-1.7872-3.05188-.8675-.76966-1.8768-1.15497-3.0276-1.15497-.9402 0-1.7956.27176-2.5654.81464-.7702.54336-1.3782 1.28503-1.8239 2.22501-.446.94045-.6686 1.9941-.6686 3.1612 0 1.1674.2226 2.2212.6686 3.1614.4457.9403 1.0537 1.682 1.8239 2.2248.7698.5435 1.6252.8148 2.5654.8148 1.1508 0 2.1601-.3848 3.0276-1.1551.867-.7698 1.4629-1.7873 1.7872-3.0517v3.9635h3.2099v-11.91541zm-3.2341 9.19211c-.9241 0-1.6901-.3078-2.2981-.9241-.6078-.6159-.9118-1.3862-.9118-2.3103s.304-1.6937.9118-2.31007c.608-.61602 1.374-.9241 2.2981-.9241s1.6938.31233 2.3101.93636c.6159.62421.924 1.39021.924 2.29781 0 .9241-.3081 1.6944-.924 2.3103-.6163.6163-1.386.9241-2.3101.9241zm11.5747-5.277v-3.91511h-3.1855v11.91541h3.1855v-5.9577c0-.8753.247-1.5113.7416-1.9089.4945-.39693 1.1632-.59571 2.0063-.59571h1.4833v-3.69624c-1.07 0-1.9697.39333-2.6991 1.17935-.7296.78664-1.2403 1.77947-1.5321 2.9789z"/><path d="m76.5124 1.11067-7.5642 7.54611c-.287.28639-.4482.67499-.4482 1.08043v8.32379h17.8862v-10.47787c0-.48313-.2288-.93778-.617-1.22558l-7.2701-5.392197c-.6068-.450097-1.4518-.388291-1.9867.145317z"/></g></svg>