<svg enable-background="new 0 0 161 28" viewBox="0 0 161 28" xmlns="http://www.w3.org/2000/svg"><g clip-rule="evenodd" fill="#ebeff0" fill-rule="evenodd"><path d="m62.7 19.2c.7-.7 1.1-1.6 1.1-2.7s-.4-2-1.1-2.7-1.5-1-2.4-1-1.8.3-2.5 1-1.1 1.6-1.1 2.7.4 2 1.1 2.7 1.5 1 2.5 1c.9 0 1.7-.3 2.4-1m2.3-7.3c1.3 1.2 1.9 2.8 1.9 4.7s-.6 3.5-1.9 4.7-2.9 1.8-4.7 1.8c-1.9 0-3.5-.6-4.8-1.8s-2-2.8-2-4.7.7-3.5 2-4.7 2.9-1.8 4.8-1.8c1.8 0 3.4.6 4.7 1.8"/><path d="m77.4 19.2c.7-.7 1.1-1.6 1.1-2.7s-.4-2-1.1-2.7-1.5-1-2.4-1c-1 0-1.8.3-2.5 1s-1 1.6-1 2.7.3 2 1 2.7 1.5 1 2.5 1c.8 0 1.7-.3 2.4-1zm4.3 3.5h-3.3v-1c-1.1.9-2.5 1.3-4.1 1.3s-3.1-.6-4.3-1.9c-1.2-1.2-1.8-2.8-1.8-4.7s.6-3.4 1.8-4.7c1.2-1.2 2.6-1.9 4.2-1.9s3 .5 4.1 1.4v-1h3.3v12.5z"/><path d="m110 11.5c.9 1 1.4 2.2 1.4 3.7v7.5h-3.3v-6.8c0-.9-.2-1.6-.7-2.1s-1.1-.8-1.8-.8c-2 0-3.1 1.4-3.1 4.3v5.5h-3.3v-17.9h3.3v6.6c1-1 2.3-1.5 3.9-1.5 1.5 0 2.7.5 3.6 1.5"/><path d="m129.1 22.7h-3.4v-7.3h-7.9v7.3h-3.4v-17.8h3.4v7.5h7.9v-7.5h3.4z"/><path d="m144.2 22.7h-3.2v-1.1c-1 1-2.3 1.5-3.9 1.5-1.5 0-2.7-.5-3.6-1.4-.9-1-1.4-2.2-1.4-3.7v-7.5h3.3v6.8c0 .9.2 1.6.7 2.1s1.1.8 1.8.8c2 0 3.1-1.4 3.1-4.3v-5.5h3.3v12.3z"/><path d="m156.9 19.2c.7-.7 1-1.6 1-2.7s-.3-2-1-2.7-1.5-1-2.5-1c-.9 0-1.7.3-2.4 1s-1.1 1.6-1.1 2.7.4 2 1.1 2.7 1.5 1 2.4 1c1 0 1.8-.3 2.5-1m2.3-7.3c1.2 1.2 1.8 2.8 1.8 4.7s-.6 3.4-1.8 4.7c-1.2 1.2-2.6 1.9-4.3 1.9-1.6 0-3-.4-4.1-1.3v1h-3.3v-18h3.3v6.5c1.1-.9 2.4-1.4 4.1-1.4s3.1.6 4.3 1.9"/><path d="m0 14c0 7.1 5.5 12.9 12.5 13.4v-26.8c-7 .5-12.5 6.3-12.5 13.4"/><path d="m16.1 9.4v-8.8c5.7 1.2 10.1 5.5 10.7 11.4h-8.2c-1.4-.1-2.5-1.2-2.5-2.6"/><path d="m16.1 18.6v8.8c5.7-1.2 10.1-5.5 10.7-11.4h-8.2c-1.4.1-2.5 1.2-2.5 2.6"/><path d="m48.3 16.8c-.3.9-.8 1.6-1.5 2.1-.9.7-1.9 1-3.1 1-1.5 0-2.7-.5-3.8-1.6-1-1.1-1.5-2.4-1.5-3.9 0-1.6.5-2.9 1.5-3.9s2.3-1.6 3.8-1.6c1.2 0 2.2.3 3.1 1 .6.5 1.1 1.2 1.5 2.1h3.5c-.4-1.9-1.4-3.4-2.8-4.6-1.5-1.1-3.3-1.7-5.3-1.7-2.4 0-4.5.8-6.2 2.5s-2.5 3.8-2.5 6.2.8 4.5 2.5 6.2 3.7 2.5 6.2 2.5c2 0 3.8-.6 5.3-1.8 1.4-1.1 2.3-2.6 2.8-4.5z"/><path d="m93.4 18.6c-.6 1-1.5 1.5-2.7 1.5-1 0-1.9-.3-2.5-1s-1-1.5-1-2.6.3-1.9 1-2.6c.6-.7 1.5-1 2.5-1 1.3 0 2.1.5 2.7 1.5h3.5c-.4-1.3-1.2-2.4-2.3-3.2s-2.4-1.2-3.9-1.2c-1.8 0-3.4.6-4.7 1.8s-1.9 2.8-1.9 4.7.6 3.5 1.9 4.7 2.8 1.8 4.7 1.8c1.5 0 2.8-.4 3.9-1.3 1.1-.8 1.8-1.9 2.2-3.2h-3.4z"/></g></svg>