<svg enable-background="new 0 0 115 32" viewBox="0 0 115 32" xmlns="http://www.w3.org/2000/svg"><g fill="#ebeff0"><path d="m109.1 4.1c-.7-.9-1.6-1.7-2.7-2.2s-2.2-.7-3.4-.7c-4.2 0-7.3 2.5-8.5 6.5-.8-4.4-3.3-6.5-7.8-6.5-2.5 0-4.6 1-5.8 2.7v-1.5l-6 .6v5.1c-.5-1.7-1.5-3.3-2.8-4.5l-.2-.1-.1-.1c-2.1-1.8-4.8-2.5-8-2.1-2.1.2-4.2 1.1-5.8 2.4l1.4-3.7-6.3.7-5.3 14.1-4.7-11.4-4.4.6v-1.6l-5.9.6v1.1c-.7-.9-1.6-1.7-2.7-2.2s-2.2-.7-3.4-.7c-5.4 0-8.9 4-9.1 10.1.1 1 .1 2 .3 3l-2.8-.3-.1.3c-.2 1-.8 1.8-1.6 2.4s-1.8.9-2.8.9c-2.8 0-4.6-2.3-4.6-5.6 0-3.4 1.9-5.6 4.7-5.6.7 0 1.4.1 2 .4s1.2.8 1.6 1.3c1.1-1.5 2.2-2.9 3.4-4.3-1.7-1.6-4.2-2.5-7.3-2.5-6 0-10.4 4.5-10.4 10.7s4.3 10.7 10.4 10.7c4.1 0 7.1-1.6 8.8-4.5.1.2.2.4.4.6.8 1.2 1.9 2.2 3.1 2.9 1.3.7 2.7 1 4.2 1 1.2 0 2.3-.2 3.3-.7s2-1.2 2.7-2.1v2.4h5.9v-13.8l6 14.1-3.3 8.8h6.2l7-18.4v.4c.8 6.4 6.3 10.2 12.7 9.4 2-.2 3.8-.9 5.6-1.8-1-1.7-1.5-2.8-2.3-4.2-.1 0-2.1 1.3-4.3 1.3-2.9 0-4.9-1.2-5.2-3.2l7.3-.9 6.6-.8v9h5.9v-10.5c0-3.7 1.2-5.3 4-5.3 2.7 0 4 1.5 4 5v10.8h5.9v-5.5c1.4 3.7 4.4 5.9 8.3 5.9 1.2 0 2.3-.2 3.3-.7s2-1.2 2.7-2.1v2.4h5.9v-19.8l-6 .6zm-80.8 13.5c-2.9 0-4.7-2.2-4.7-5.7s1.8-5.6 4.7-5.6 4.7 2.2 4.7 5.6c0 3.5-1.9 5.7-4.7 5.7zm32-7.6c.1-2.4 1.6-4 4.1-4.3s4.4.9 5 3.2zm44.2 7.6c-2.9 0-4.7-2.2-4.7-5.7s1.8-5.6 4.7-5.6 4.7 2.2 4.7 5.6c0 3.5-1.8 5.7-4.7 5.7z"/><path d="m66.9 31.4c0-.1 1.2-1.5 0-2.4l-1.2.7-.7-1c-.2.2-.3.3-.5.5l-.9-1.1c-.6.2-.9.5-1 1-.1.7.2 1.1.9 2.3-.6-.2-1.1-.5-1.5-1s-.6-1.1-.6-1.7c-.1-1.4.7-2.2 2.9-3.6.5.7.9 1.3 1.2 1.7.2-.1.8-.5 1.2-.6.5.5 1 1.2 1.3 1.8.1.3.2.7.2 1s-.1.7-.2 1-.3.6-.6.9c.1.1-.2.3-.5.5z"/></g></svg>