<svg xmlns="http://www.w3.org/2000/svg" width="16" height="16" fill="none"><g stroke="#c5c9d3" stroke-miterlimit="10" stroke-width=".99"><path d="M14.273 8.979V7.257a.854.854 0 0 0-.43-.74l-1.491-.858a.866.866 0 0 0-.852 0l-1.492.858a.86.86 0 0 0-.429.74v1.722c0 .305.162.584.43.74l1.491.858c.261.149.59.149.852 0l1.492-.858a.86.86 0 0 0 .429-.74zM6.421 3.975V2.253a.854.854 0 0 0-.429-.74L4.5.655a.866.866 0 0 0-.852 0l-1.492.858a.86.86 0 0 0-.428.74v1.722c0 .304.161.584.428.74l1.492.857c.262.15.591.15.852 0l1.492-.858a.86.86 0 0 0 .43-.74zm0 9.772v-1.722a.854.854 0 0 0-.429-.74L4.5 10.427a.866.866 0 0 0-.852 0l-1.492.858a.86.86 0 0 0-.428.74v1.722c0 .305.161.584.428.74l1.492.858a.868.868 0 0 0 .852 0l1.492-.858a.86.86 0 0 0 .43-.74z" clip-rule="evenodd"/><path d="M12.352 10.583v1.53a.77.77 0 0 1-.771.77H6.42m5.932-7.466V3.763a.653.653 0 0 0-.653-.653H6.42"/></g><path fill="#c5c9d3" d="M12.737 8.432V7.81a.497.497 0 0 0-.497-.497h-.622a.497.497 0 0 0-.497.497v.622c0 .275.223.497.497.497h.622a.497.497 0 0 0 .497-.497zM4.886 13.2v-.622a.497.497 0 0 0-.498-.497h-.621a.497.497 0 0 0-.498.497v.622c0 .275.223.497.498.497h.621a.497.497 0 0 0 .498-.497zm.117-9.773v-.621a.497.497 0 0 0-.497-.498h-.622a.497.497 0 0 0-.497.498v.621c0 .275.223.498.497.498h.622a.497.497 0 0 0 .497-.498z"/></svg>