<svg xmlns="http://www.w3.org/2000/svg" width="16" height="16" fill="none"><clipPath id="a"><path d="M0 0h16v16H0z"/></clipPath><g clip-path="url(#a)"><path stroke="#c5c9d3" stroke-miterlimit="10" d="M1.356.618c-.4 0-.738.338-.738.738v5.168c0 .4.338.738.738.738h5.168c.4 0 .738-.339.738-.738V1.356c0-.4-.339-.738-.738-.738zm8.12 0c-.4 0-.738.338-.738.738v5.168c0 .4.339.738.738.738h5.168c.4 0 .738-.339.738-.738V1.356c0-.4-.339-.738-.738-.738zm-8.12 8.12c-.4 0-.738.339-.738.738v5.168c0 .4.338.738.738.738h5.168c.4 0 .738-.339.738-.738V9.476c0-.4-.339-.738-.738-.738zm8.12 0c-.4 0-.738.339-.738.738v5.168c0 .4.339.738.738.738h5.168c.4 0 .738-.339.738-.738V9.476c0-.4-.339-.738-.738-.738z"/></g></svg>