<svg xmlns="http://www.w3.org/2000/svg" width="16" height="16" fill="none"><clipPath id="a"><path d="M0 0h16v16H0z"/></clipPath><g clip-path="url(#a)"><path fill="#c5c9d3" d="M12.746 13.766 9.253 3.036a1.318 1.318 0 0 0-.959-1.126.196.196 0 0 1-.154-.19V.771c0-.086-.067-.153-.153-.153s-.154.067-.154.153v.923c0 .098-.074.172-.166.19-.541.117-.96.56-1.027 1.132l-3.462 10.75a.149.149 0 0 0 .086.184.217.217 0 0 0 .062.012.16.16 0 0 0 .135-.08l4.353-7.686a.197.197 0 0 1 .345 0l4.31 7.686c.037.068.123.099.197.068.074-.03.11-.11.086-.184zM7.956 4.11a.88.88 0 1 1 0-1.758.88.88 0 0 1 0 1.758z"/><g stroke="#c5c9d3" stroke-miterlimit="10"><path d="m13.428 6.048 1.87 1.82c.08.074.08.203 0 .283l-7.164 7.17a.19.19 0 0 1-.277 0L.7 8.151a.202.202 0 0 1 0-.283l1.906-1.82a.2.2 0 0 1 .277 0l5.005 4.913a.2.2 0 0 0 .277 0l4.987-4.907a.2.2 0 0 1 .277-.006z"/><path stroke-width="1.01" d="m13.533 8.859.498.498m-1.98.91.498.498m-2.41 1.494.498.498"/><path stroke-width=".96" d="m8.737 13.477.473.473"/><path stroke-width="1.01" d="m2.6 8.957-.498.504m1.875.922-.498.499m2.411 1.482-.498.498m1.795.602-.498.498"/></g></g></svg>