<svg xmlns="http://www.w3.org/2000/svg" width="16" height="16" fill="none"><clipPath id="a"><path d="M0 0h16v16H0z"/></clipPath><g clip-path="url(#a)"><g stroke="#c5c9d3" stroke-miterlimit="10"><path d="M4.271 7.014H3.037V5.097a.541.541 0 0 0-.144-.376.484.484 0 0 0-.714 0 .552.552 0 0 0-.145.376v2.455c0 .295.226.533.502.533H4.27v2.893H2.536c-.276 0-.502.239-.502.533v2.449c0 .138.05.276.145.376a.484.484 0 0 0 .714 0 .552.552 0 0 0 .144-.376v-1.917h1.26C4.516 13.998 6.089 15.52 8 15.52s3.484-1.522 3.703-3.477h1.26v1.917c0 .144.05.276.144.376a.484.484 0 0 0 .714 0 .552.552 0 0 0 .145-.376v-2.45c0-.294-.226-.532-.502-.532h-1.736V8.085h1.736c.276 0 .502-.238.502-.533V5.097a.538.538 0 0 0-.145-.376.486.486 0 0 0-.714 0 .552.552 0 0 0-.144.376v1.917H4.278z"/><path d="M5.444 5.968h5.113c.163 0 .27-.17.194-.314l-1.228-2.28c-.038-.069-3.04 0-3.04 0l-1.227 2.28a.215.215 0 0 0 .194.314zm3.959-2.756.59-1.021"/></g><path fill="#c5c9d3" d="M10.456 2.547c.581 0 1.053-.462 1.053-1.033 0-.57-.472-1.034-1.053-1.034S9.403.943 9.403 1.514c0 .57.471 1.033 1.053 1.033z"/><path stroke="#c5c9d3" stroke-miterlimit="10" d="m6.589 3.212-.59-1.021"/><path fill="#c5c9d3" d="M5.536 2.547c.582 0 1.053-.462 1.053-1.033A1.043 1.043 0 0 0 5.536.48c-.581 0-1.052.463-1.052 1.034 0 .57.471 1.033 1.052 1.033z"/></g></svg>