<svg xmlns="http://www.w3.org/2000/svg" width="16" height="16" fill="none"><clipPath id="a"><path d="M0 0h16v16H0z"/></clipPath><g clip-path="url(#a)"><g stroke="#c5c9d3"><path stroke-linejoin="round" stroke-miterlimit="10" d="M.5 15.644V5.422c0-.533.5-1.067 1.2-1.067h11.8m2-.444v10.222c0 .534-.5 1.067-1.2 1.067H2.5"/><path d="M10 9.5a2 2 0 1 1-4 0 2 2 0 0 1 4 0z"/></g><path fill="#c5c9d3" d="M4.5 1.213a.84.84 0 0 1 .052-.324h6.896a.84.84 0 0 1 .052.324V3.21h1V1.213c0-.274-.051-.542-.178-.76A.874.874 0 0 0 11.556 0H4.444a.874.874 0 0 0-.766.452C3.55.671 3.5.94 3.5 1.212V3.21h1z"/></g></svg>