<svg xmlns="http://www.w3.org/2000/svg" width="16" height="16" fill="none"><clipPath id="a"><path d="M0 0h16v16H0z"/></clipPath><g clip-path="url(#a)"><path stroke="#c5c9d3" stroke-miterlimit="10" d="M6.3 2.1H16M6.3 8H16m-9.7 5.9H16"/><path fill="#c5c9d3" d="M.5 0C.2 0 0 .2 0 .5v3.8h3.8c.3 0 .5-.2.5-.5V0zm1.6 3.3C1.5 3.3 1 2.8 1 2.1 1 1.5 1.5 1 2.1 1s1.2.5 1.2 1.2c0 .6-.5 1.1-1.2 1.1zM.5 5.9c-.3 0-.5.2-.5.5v3.8h3.8c.3 0 .5-.2.5-.5V5.9zm1.6 3.3C1.5 9.2 1 8.6 1 8s.5-1.2 1.2-1.2c.6 0 1.2.5 1.2 1.2-.1.6-.6 1.2-1.3 1.2zM.5 11.7c-.3 0-.5.2-.5.5V16h3.8c.3 0 .5-.2.5-.5v-3.8zM2.1 15c-.6 0-1.1-.5-1.1-1.1s.5-1.2 1.2-1.2c.6 0 1.2.5 1.2 1.2-.1.6-.6 1.1-1.3 1.1z"/></g></svg>