<svg xmlns="http://www.w3.org/2000/svg" width="16" height="16" fill="none"><clipPath id="a"><path d="M0 0h16v16H0z"/></clipPath><g clip-path="url(#a)"><path fill="#c5c9d3" d="M15.1 15.4h-3.3v-4.9c0-.5.4-.9.9-.9H16v4.9c0 .5-.4.9-.9.9zm-11.8 0H0v-4.9c0-.5.4-.8.9-.8h3.3v4.9c-.1.4-.5.8-.9.8zm5.9 0H5.9v-4.9c0-.5.4-.9.9-.9h3.3v4.9c0 .5-.4.9-.9.9z"/><path stroke="#c5c9d3" stroke-miterlimit="10" d="M13.9.6v6.5m-11.8.6V2.4c0-.7.6-1.3 1.3-1.3H12"/><path fill="#c5c9d3" d="m15.9 5.5-2 2.2L12 5.5z"/></g></svg>