<svg xmlns="http://www.w3.org/2000/svg" width="16" height="16" fill="none"><path fill="#c5c9d3" fill-rule="evenodd" d="M8.192 5.808a2.2 2.2 0 0 0-2.383 2.383zm-.384 4.384a2.2 2.2 0 0 0 2.384-2.384zm-3.85-.15-1.164-.847-.588.81 1.036.753zm1.694 2.306c1.91.83 4.185.574 5.948-.748l.004-.003 4.3-3.3-.609-.794-4.297 3.298c-1.366 1.024-3.079 1.276-4.573.773zm4.696-8.696c-1.91-.83-4.185-.574-5.948.748l-.005.003-4.3 3.3.61.794 4.297-3.299c1.366-1.023 3.079-1.275 4.572-.772zm2.38 1.62-.713.713 1.18.91.61-.79z" clip-rule="evenodd"/><path stroke="#c5c9d3" d="m4 12 8-8"/></svg>