<svg xmlns="http://www.w3.org/2000/svg" width="16" height="16" fill="none"><clipPath id="a"><path d="M0 0h16v16H0z"/></clipPath><g clip-path="url(#a)"><path fill="#c5c9d3" d="M6.9 4.5H5.2V1c0-.3.2-.5.5-.5h1.8V4c0 .3-.3.5-.6.5z"/><path stroke="#c5c9d3" stroke-miterlimit="10" d="M0 2.5h6.3m2.9 0H16"/><path fill="#c5c9d3" d="M3.7 10H2V6.5c0-.3.2-.5.5-.5h1.8v3.5c0 .3-.3.5-.6.5z"/><path stroke="#c5c9d3" stroke-miterlimit="10" d="M0 8h3.1M6 8h10"/><path fill="#c5c9d3" d="M11 15.5H9.2V12c0-.3.2-.5.5-.5h1.8V15c0 .3-.2.5-.5.5z"/><path stroke="#c5c9d3" stroke-miterlimit="10" d="M0 13.5h10.4m2.9 0H16"/></g></svg>