<svg xmlns="http://www.w3.org/2000/svg" width="16" height="16" fill="none"><clipPath id="a"><path d="M0 0h16v16H0z"/></clipPath><g stroke="#c5c9d3" stroke-miterlimit="10" clip-path="url(#a)"><path d="M2.9 2.6 5.1.4M14 11.9l-3.8 3.8m1.4-15 2.6 2.6M1.8 5h1.7c.3 0 .5-.1.7-.3L8.6.3M10 12.5l-1.8 1.8c-.2.2-.4.3-.6.3H2.9M9.5 2l4.9 4.9c.3.3.3.9 0 1.2l-3.3 3.3"/><path d="m7 5.3.6-.6c.3-.3.9-.3 1.2 0L12 7.9M.9 7.4h3.7c.2 0 .5-.1.6-.3l1-1m-2.8 6.1H.9m9.5-3.4L7.2 12c-.2.2-.4.3-.6.3H4.8M.9 9.8h4.6c.2 0 .5-.1.6-.3L8.6 7"/></g></svg>