<svg xmlns="http://www.w3.org/2000/svg" width="16" height="16" fill="none"><clipPath id="a"><path d="M0 0h16v16H0z"/></clipPath><g stroke="#c5c9d3" stroke-miterlimit="10" clip-path="url(#a)"><path d="M13.136 15.012a2.333 2.333 0 1 0 0-4.667 2.333 2.333 0 0 0 0 4.667zm-10.272 0a2.333 2.333 0 1 0 0-4.666 2.333 2.333 0 0 0 0 4.666zm7.945-2.333H5.197M2.864 5.654a2.333 2.333 0 1 0 0-4.666 2.333 2.333 0 0 0 0 4.666z"/><path d="M5.197 3.328h5.612l3.596 3.633"/><path d="m14.262 3.832.143 3.129h-2.806"/></g></svg>