<svg xmlns="http://www.w3.org/2000/svg" width="17" height="16" fill="none"><g fill="#c5c9d3"><path fill-rule="evenodd" d="M8 .333a8.029 8.029 0 0 0-5.182 1.898A7.945 7.945 0 0 0 .106 7.015a7.918 7.918 0 0 0 1.051 5.39 7.993 7.993 0 0 0 4.313 3.43c.397.074.547-.172.547-.382 0-.21-.008-.816-.01-1.48-2.226.48-2.696-.94-2.696-.94-.363-.921-.888-1.164-.888-1.164-.726-.492.054-.483.054-.483.804.056 1.227.82 1.227.82.713 1.216 1.872.865 2.328.659.071-.515.28-.865.508-1.064-1.778-.2-3.645-.883-3.645-3.93a3.071 3.071 0 0 1 .824-2.136c-.083-.2-.357-1.009.078-2.107 0 0 .671-.214 2.2.815a7.635 7.635 0 0 1 4.006 0c1.527-1.029 2.198-.815 2.198-.815.436 1.095.161 1.904.08 2.107.541.58.837 1.346.825 2.138 0 3.054-1.872 3.728-3.653 3.924.286.247.542.73.542 1.474 0 1.064-.01 1.92-.01 2.182 0 .212.145.46.55.382a7.993 7.993 0 0 0 4.314-3.43 7.918 7.918 0 0 0 1.05-5.392 7.945 7.945 0 0 0-2.713-4.783A8.028 8.028 0 0 0 8.003.333z" clip-rule="evenodd"/><path d="M3.03 11.755c-.018.04-.081.051-.133.023-.052-.027-.09-.079-.071-.12.018-.04.08-.05.132-.023s.091.08.072.12zm.324.359a.133.133 0 0 1-.164-.037c-.052-.055-.062-.131-.023-.166.04-.034.112-.018.163.037s.064.132.024.166zm.316.457c-.05.035-.133 0-.18-.068a.132.132 0 0 1 0-.19c.05-.033.133 0 .18.067.046.067.047.157 0 .191zm.427.443c-.043.049-.132.036-.205-.03s-.09-.156-.046-.203c.043-.048.132-.034.208.03.075.065.09.156.043.203zm.601.258c-.02.062-.11.09-.2.063-.09-.026-.15-.1-.133-.163.017-.063.109-.092.2-.063.091.029.15.099.133.163zm.654.045c0 .064-.074.12-.17.121-.095.001-.173-.051-.173-.116 0-.064.074-.12.17-.121.095-.001.173.05.173.116zm.609-.102c.012.065-.054.132-.15.148s-.178-.022-.19-.086c-.012-.063.057-.131.15-.148s.178.022.19.086z"/></g></svg>