<svg xmlns="http://www.w3.org/2000/svg" width="16" height="16" fill="none"><clipPath id="a"><path d="M0 0h16v16H0z"/></clipPath><g stroke="#c5c9d3" stroke-miterlimit="10" clip-path="url(#a)"><path d="M14.368 2.253v12.736a.552.552 0 0 1-.551.552h-10.5s-.032-.013-.032-.032V1.733s.013-.032.032-.032h10.5c.304 0 .551.248.551.552z"/><path d="M3.28 1.701 1.783.466s-.057 0-.057.025l-.095 13.567s0 .019.012.025l1.69 1.476"/><path stroke-width=".96" d="M1.898.453h10.544c.342 0 .62.254.62.57v.678"/><path stroke-width=".98" d="M5.263 3.881h7.306c.114 0 .202.095.202.216v2.756c0 .12-.088.215-.202.215H5.263c-.114 0-.203-.095-.203-.215V4.097c0-.12.089-.216.203-.216z"/></g></svg>