<svg xmlns="http://www.w3.org/2000/svg" width="16" height="16" fill="none"><clipPath id="a"><path d="M0 0h16v16H0z"/></clipPath><g clip-path="url(#a)"><path stroke="#c5c9d3" stroke-miterlimit="10" d="M9.6 6.6 8 5.7l1.3-2.9"/><path stroke="#c5c9d3" stroke-miterlimit="10" d="M8 10.9A5.2 5.2 0 1 0 8 .5a5.2 5.2 0 0 0 0 10.4z"/><path fill="#c5c9d3" d="M3.4 16a1.4 1.4 0 1 0 0-2.8 1.4 1.4 0 0 0 0 2.8zM8 16a1.4 1.4 0 1 0 0-2.8A1.4 1.4 0 0 0 8 16zm4.6 0a1.4 1.4 0 1 0 0-2.8 1.4 1.4 0 0 0 0 2.8z"/></g></svg>