<svg xmlns="http://www.w3.org/2000/svg" width="16" height="16" fill="none"><clipPath id="a"><path d="M0 0h16v16H0z"/></clipPath><g clip-path="url(#a)"><path stroke="#c5c9d3" stroke-linejoin="round" stroke-miterlimit="10" d="M4.4 15.5v-3.1h5.3m-9 3.1v-3.1h2.1"/><path fill="#c5c9d3" d="M11 9.3c-.7 0-1.3.6-1.3 1.3v5h5c.7 0 1.3-.6 1.3-1.3v-5zm1.9 4.8c-.9 0-1.7-.8-1.7-1.7s.8-1.7 1.7-1.7 1.7.8 1.7 1.7-.8 1.7-1.7 1.7z"/><path stroke="#c5c9d3" stroke-linejoin="round" stroke-miterlimit="10" d="M11.6 6.7V3.6H6.3"/><path fill="#c5c9d3" d="M0 .5v5c0 .7.6 1.3 1.3 1.3h5v-5C6.3 1 5.7.5 5 .5zm1.4 3.1c0-.9.8-1.7 1.7-1.7s1.7.8 1.7 1.7S4 5.3 3.1 5.3s-1.7-.8-1.7-1.7z"/><path stroke="#c5c9d3" stroke-linejoin="round" stroke-miterlimit="10" d="M15.3 6.7V3.6h-2.1"/></g></svg>