<svg xmlns="http://www.w3.org/2000/svg" width="16" height="16" fill="none"><clipPath id="a"><path d="M0 0h16v16H0z"/></clipPath><g clip-path="url(#a)"><path stroke="#c5c9d3" stroke-miterlimit="10" d="M5.7 1.6H16M5.7 8H16M5.7 14.4H16"/><path fill="#c5c9d3" d="M1.6 3.1C.7 3.1 0 2.4 0 1.6 0 .7.7 0 1.6 0s1.6.7 1.6 1.6c-.1.8-.8 1.5-1.6 1.5zm0 6.5C.7 9.6 0 8.9 0 8s.7-1.6 1.6-1.6 1.6.7 1.6 1.6c-.1.9-.8 1.6-1.6 1.6zm0 6.4C.7 16 0 15.3 0 14.4s.7-1.6 1.6-1.6 1.6.7 1.6 1.6c-.1.9-.8 1.6-1.6 1.6z"/></g></svg>