<svg xmlns="http://www.w3.org/2000/svg" width="16" height="16" fill="none"><clipPath id="a"><path d="M0 0h16v16H0z"/></clipPath><g clip-path="url(#a)"><path stroke="#c5c9d3" stroke-miterlimit="10" d="M2 7.1v2.2m12-2.2v2.2M.5 12.7V10c0-.4.3-.7.7-.7H16m-.5 2.7v2.7c0 .4-.3.7-.7.7H0"/><path fill="#c5c9d3" d="M2.1 5.3C.9 5.3 0 4.4 0 3.2V1C0 .7.2.5.5.5h3.6v2.7c0 1.2-.9 2.1-2 2.1zm11.8 0c-1.1 0-2.1-.9-2.1-2.1V1c0-.3.2-.5.5-.5H16v2.7c0 1.2-.9 2.1-2.1 2.1zM8 5.3c-1.1 0-2.1-.9-2.1-2.1V1c0-.3.2-.5.5-.5H10v2.7c.1 1.2-.9 2.1-2 2.1z"/></g></svg>