<svg xmlns="http://www.w3.org/2000/svg" width="16" height="16" fill="none"><clipPath id="a"><path d="M0 0h16v16H0z"/></clipPath><g clip-path="url(#a)"><path stroke="#c5c9d3" stroke-miterlimit="10" d="M.1 2.5h5.1M2.7 5.1V0"/><path fill="#c5c9d3" d="M4.9 11.3a2.3 2.3 0 1 0 0-4.6 2.3 2.3 0 0 0 0 4.6z"/><path stroke="#c5c9d3" stroke-miterlimit="10" d="M8.5 16v-1.5c0-.6-.5-1-1-1H2"/><path fill="#c5c9d3" d="M11.9 8.1a2.3 2.3 0 1 0 0-4.6 2.3 2.3 0 0 0 0 4.6z"/><path stroke="#c5c9d3" stroke-miterlimit="10" d="M15.5 13.7v-2.4c0-.6-.5-1-1-1H8.9"/></g></svg>