<svg xmlns="http://www.w3.org/2000/svg" width="16" height="16" fill="none"><clipPath id="a"><path d="M0 0h16v16H0z"/></clipPath><g clip-path="url(#a)"><path stroke="#c5c9d3" stroke-miterlimit="10" d="M6.782 5.63c.217-.163.483-.229.748-.187s.5.181.663.398L15.423 14l-1.76 1.507-7.08-8.46a1.006 1.006 0 0 1 .193-1.405z"/><path fill="#c5c9d3" d="m3.224.493-.73 1.881-1.917.929 1.803.778 1.212 1.7 1.037-1.893 1.532-.94-1.948-.664zM2.67 9.085l.826 1.068-.127 1.417 1.068-.766 1.393-.109-.73-1.248-.012-1.2-1.05.893zm7.367-8.055.121 1.766-1.17 1.46 1.725-.06 1.604.898.114-1.894.856-1.32-1.79.205z"/></g></svg>