<svg xmlns="http://www.w3.org/2000/svg" width="16" height="16" fill="none"><clipPath id="a"><path d="M0 0h16v16H0z"/></clipPath><g clip-path="url(#a)"><path fill="#c5c9d3" d="M1.837 11.392H.53V8.31c0-.186.187-.373.373-.373h1.308v3.081c0 .187-.094.374-.374.374zm13.26 0H13.79V8.31c0-.186.186-.373.373-.373h1.307v3.081a.402.402 0 0 1-.373.374z"/><path stroke="#c5c9d3" stroke-miterlimit="10" stroke-width=".934" d="M8 1.587v1.775"/><path fill="#c5c9d3" d="M8 2.428A1.214 1.214 0 1 0 8 0a1.214 1.214 0 0 0 0 2.428z"/><path stroke="#c5c9d3" stroke-miterlimit="10" stroke-width=".934" d="M3.518 5.229c-.467 0-.934.467-.934.934v8.31h9.898c.467 0 .934-.467.934-.934V5.23zm2.055 6.536h4.855"/><path fill="#c5c9d3" d="M5.666 9.618c-.56 0-1.027-.467-1.027-1.027 0-.56.467-1.028 1.027-1.028s1.027.467 1.027 1.028c0 .56-.467 1.027-1.027 1.027zm4.669 0c-.56 0-1.027-.467-1.027-1.027 0-.56.466-1.028 1.027-1.028.56 0 1.027.467 1.027 1.028 0 .56-.467 1.027-1.027 1.027z"/></g></svg>