<svg xmlns="http://www.w3.org/2000/svg" width="16" height="16" fill="none"><clipPath id="a"><path d="M0 0h16v16H0z"/></clipPath><g clip-path="url(#a)"><path stroke="#c5c9d3" stroke-miterlimit="10" d="m15.5 1.3-.6 4.1c-.2 1-.8 1.9-1.7 2.4l-2.5 1.3-1.1.5m3.6-7.9-1.8.3c-1 .2-1.9.8-2.4 1.7L7.2 7.2"/><path fill="#c5c9d3" d="M11.9 5.7a.9.9 0 1 0 0-1.8.9.9 0 0 0 0 1.8z"/><path stroke="#c5c9d3" stroke-miterlimit="10" d="m2.6 8.3 1.1-.8c.3-.3.7-.4 1.1-.2l.6.2m3.1 6.7.8-1.1c.2-.3.3-.7.2-1.1l-.2-.6"/><path fill="#c5c9d3" d="m5.5 11.6-.7.7-.8-.9c-.1-.1-.2-.1-.3 0l-3 3-.7.7.7.7.7-.7.9.9c.1.1.2.1.3 0l3-3 .7-.7z"/><path stroke="#c5c9d3" stroke-miterlimit="10" d="m6.6 10.2 1.5-1.5"/></g></svg>