<svg xmlns="http://www.w3.org/2000/svg" width="16" height="16" fill="none"><clipPath id="a"><path d="M0 0h16v16H0z"/></clipPath><g fill="#c5c9d3" clip-path="url(#a)"><path d="M.7 0C.3 0 0 .3 0 .7v2.8h15.3c.4 0 .7-.3.7-.7V0zm1.5 2.8c-.6 0-1-.4-1-1s.4-1 1-1 1 .4 1 1c0 .5-.4 1-1 1zm10.3-.4H6V1.1h6.5zM.7 6.2c-.4 0-.7.4-.7.7v2.8h15.3c.4 0 .7-.3.7-.7V6.2zM2.2 9c-.6 0-1-.4-1-1s.4-1 1-1 1 .4 1 1-.4 1-1 1zm10.3-.4H6V7.3h6.5zM.7 12.5c-.4 0-.7.3-.7.7V16h15.3c.4 0 .7-.3.7-.7v-2.8zm1.5 2.7c-.6 0-1-.4-1-1s.4-1 1-1 1 .4 1 1-.4 1-1 1zm10.3-.3H6v-1.3h6.5z"/></g></svg>