<svg xmlns="http://www.w3.org/2000/svg" width="16" height="16" fill="none"><path stroke="#c5c9d3" stroke-linejoin="round" stroke-miterlimit="10" d="M5.5 14.7a2.9 2.9 0 1 0 0-5.8 2.9 2.9 0 0 0 0 5.8zm0-7.2v1.3m0 5.9V16m-4.2-4.2h1.3m5.8 0h1.3m-7.2-3 .9.9m4.2 4.2.9.9m-6 0 .9-.9m4.2-4.2.9-.9m2-1.7a2.9 2.9 0 1 0 0-5.8 2.9 2.9 0 0 0 0 5.8zm0-7.1v1.3m0 5.9v1.3M6.3 4.2h1.3m5.8 0h1.3m-7.2-3 .9.9m4.2 4.2.9.9m-6 0 .9-.9m4.2-4.2.9-.9"/><path fill="#c5c9d3" d="M5.5 12.7a.9.9 0 1 0 0-1.8.9.9 0 0 0 0 1.8zm5-7.6a.9.9 0 1 0 0-1.8.9.9 0 0 0 0 1.8z"/></svg>