<svg xmlns="http://www.w3.org/2000/svg" width="16" height="16" fill="none"><clipPath id="a"><path d="M0 0h16v16H0z"/></clipPath><g clip-path="url(#a)"><path stroke="#c5c9d3" stroke-miterlimit="10" d="M5.8 7.5H1.3c-.5 0-.9.5-.7 1l2 7.1M16 9.5H5.8"/><path fill="#c5c9d3" d="M15.2 7.5h-3.4V3.8c0-.4.4-.8.8-.8H16v3.7c0 .5-.4.8-.8.8z"/><path stroke="#c5c9d3" stroke-miterlimit="10" d="M10.7 1H16M4.5 15.4H14c.8 0 1.5-.7 1.5-1.5v-1.6"/><path fill="#c5c9d3" d="M5.4 13.1a.9.9 0 1 0 0-1.8.9.9 0 0 0 0 1.8zm2.6 0a.9.9 0 1 0 0-1.8.9.9 0 0 0 0 1.8z"/></g></svg>