<svg xmlns="http://www.w3.org/2000/svg" width="16" height="16" fill="none"><path fill="#c5c9d3" d="M3.362 10.11c0 .926-.756 1.682-1.681 1.682S0 11.035 0 10.11s.756-1.68 1.68-1.68h1.682zm.846 0c0-.924.756-1.68 1.681-1.68s1.681.756 1.681 1.68v4.21c0 .924-.756 1.68-1.68 1.68s-1.682-.756-1.682-1.68zM5.89 3.362c-.926 0-1.681-.756-1.681-1.681S4.964 0 5.889 0 7.57.756 7.57 1.68v1.682zm0 .846c.924 0 1.68.756 1.68 1.681S6.814 7.57 5.89 7.57H1.68C.757 7.57 0 6.814 0 5.89s.756-1.682 1.68-1.682zm6.749 1.682c0-.926.755-1.681 1.68-1.681.925 0 1.681.755 1.681 1.68s-.756 1.681-1.68 1.681h-1.681zm-.847 0c0 .924-.756 1.68-1.681 1.68s-1.68-.756-1.68-1.68V1.68A1.683 1.683 0 0 1 10.11 0c.925 0 1.68.756 1.68 1.68zm-1.681 6.748c.925 0 1.68.756 1.68 1.681S11.037 16 10.112 16s-1.68-.756-1.68-1.68v-1.682zm0-.847c-.925 0-1.68-.755-1.68-1.68 0-.925.755-1.681 1.68-1.681h4.208c.926 0 1.681.756 1.681 1.68 0 .926-.755 1.682-1.68 1.682z"/></svg>