<svg xmlns="http://www.w3.org/2000/svg" width="16" height="16" fill="none"><g stroke="#c5c9d3" stroke-miterlimit="10"><path d="M1.75 14.77V8.291c0-.138.104-.27.289-.368.184-.098.435-.153.697-.153h6.028c.13 0 .258.014.378.04.12.026.228.064.32.113.09.048.163.105.213.169s.075.13.075.2v5.956a.323.323 0 0 1-.075.2.661.661 0 0 1-.214.169 1.27 1.27 0 0 1-.32.113c-.119.026-.247.04-.377.04H4.053"/><path stroke-width=".8" d="M2.75 7.574V6.57a.8.8 0 0 1 .8-.8h4.266a.8.8 0 0 1 .8.8v1.004"/><path stroke-width=".6" d="M4.14 5.815V4.622c0-.47.28-.852.624-.852h1.837c.346 0 .626.382.626.852v1.179"/></g><path fill="#c5c9d3" fill-rule="evenodd" d="M14.042 2.613a.708.708 0 1 1 0-1.416.708.708 0 0 1 0 1.416zm0 2.475a.708.708 0 1 1 0-1.415.708.708 0 0 1 0 1.415zm0 2.471a.708.708 0 1 1 0-1.415.708.708 0 0 1 0 1.415zm-2.119-1.411a.708.708 0 1 1 0-1.416.708.708 0 0 1 0 1.416zM9.804 4.736a.708.708 0 1 1 0-1.415.708.708 0 0 1 0 1.415zm2.119-1.064a.708.708 0 1 1 0-1.415.708.708 0 0 1 0 1.415z" clip-rule="evenodd"/></svg>