<svg xmlns="http://www.w3.org/2000/svg" width="16" height="16" fill="none"><clipPath id="a"><path d="M0 0h16v16H0z"/></clipPath><g clip-path="url(#a)"><path stroke="#c5c9d3" stroke-miterlimit="10" d="m7.85 11.245-4.626 3.527c-.193.147-.453-.06-.353-.28l2.08-4.74a.245.245 0 0 0-.067-.28L.531 6.065c-.173-.133-.08-.42.147-.42h4.52c.086 0 .16-.046.2-.12l2.4-4.226a.232.232 0 0 1 .406 0l2.4 4.226c.04.074.12.12.2.12h4.52c.22 0 .32.28.147.42l-4.353 3.407a.227.227 0 0 0-.067.28l2.08 4.74c.1.22-.167.427-.353.28L8.15 11.245a.22.22 0 0 0-.28 0z"/></g></svg>