<svg xmlns="http://www.w3.org/2000/svg" width="16" height="16" fill="none"><clipPath id="a"><path d="M0 0h16v16H0z"/></clipPath><g clip-path="url(#a)"><path fill="#c5c9d3" d="m9.9 10.8 1.2-1.2 3.5 3.5c.1.1.1.4 0 .5l-1.2 1.2-3.5-3.5c-.2-.1-.2-.3 0-.5zM1.4 2.4l1.2-1.2 3.5 3.5c.1.1.1.4 0 .5L4.9 6.4 1.4 2.9c-.1-.1-.1-.4 0-.5zm9.4 3.7L9.6 4.9l3.5-3.5c.1-.1.4-.1.5 0l1.2 1.2-3.5 3.5c-.1.2-.3.2-.5 0zm-8.2 8.8-1.2-1.2c-.1-.1-.1-.4 0-.5l3.5-3.5 1.2 1.2c.1.1.1.4 0 .5z"/><path stroke="#c5c9d3" stroke-miterlimit="10" d="M13.8 12.7c1.7-2.1 2.2-4.9 1.1-7.5M3.4 13.9c2.1 1.6 4.9 2.1 7.4 1M2.1 3.4C.5 5.5 0 8.3 1.1 10.8m11.5-8.7C10.5.5 7.7 0 5.2 1.1m5.5 10.3c-1.6 1.2-3.8 1.2-5.3 0m6-6.1c1.2 1.6 1.2 3.8 0 5.3m-6.1-6c1.6-1.2 3.8-1.2 5.3 0m-6 6.1c-1.2-1.6-1.2-3.8 0-5.3"/></g></svg>