<svg xmlns="http://www.w3.org/2000/svg" width="16" height="16" fill="none"><clipPath id="a"><path d="M0 0h16v16H0z"/></clipPath><g stroke="#c5c9d3" stroke-miterlimit="10" clip-path="url(#a)"><path stroke-width=".89" d="M3.234 7.189H1.17a.54.54 0 0 0-.54.54v6.593a.54.54 0 0 0 .54.541h2.064a.54.54 0 0 0 .54-.54V7.73a.54.54 0 0 0-.54-.541z"/><path stroke-width="1.04" d="M4.863 8.356v5.862h.878s5.296 1.75 7.576.54c0 0 .676-.325 1.149-1.142l.842-5.549s.614-1.886-1.985-1.665l-2.525.381s.571-1.855.946-2.427c.97-1.8 1.554-4.43-.995-3.244-.541.369-2.802 4.51-2.802 4.51s-1.1 1.88-1.856 2.07c-.755.191-1.228.326-1.228.664z"/></g></svg>