<svg xmlns="http://www.w3.org/2000/svg" width="16" height="16" fill="none"><clipPath id="a"><path d="M0 0h16v16H0z"/></clipPath><g stroke="#c5c9d3" stroke-miterlimit="10" clip-path="url(#a)"><path stroke-width=".89" d="M12.739 8.807h2.053a.537.537 0 0 0 .537-.538V1.714a.538.538 0 0 0-.537-.538h-2.053a.538.538 0 0 0-.538.538v6.555c0 .297.241.538.538.538z"/><path stroke-width="1.04" d="M11.12 7.646V1.818h-.874S4.98.076 2.713 1.28c0 0-.672.324-1.142 1.136L.734 7.933s-.61 1.875 1.973 1.656l2.511-.38s-.568 1.846-.94 2.414c-.966 1.79-1.546 4.405.99 3.226.537-.367 2.785-4.485 2.785-4.485s1.094-1.869 1.845-2.058c.752-.19 1.222-.324 1.222-.66z"/></g></svg>