<svg xmlns="http://www.w3.org/2000/svg" width="16" height="16" fill="none"><path stroke="#c5c9d3" stroke-miterlimit="10" stroke-width="1.02" d="M12.04 6.878h-1.65a.213.213 0 0 0-.214.213v7.802c0 .118.095.213.213.213h1.652a.213.213 0 0 0 .213-.213V7.091a.213.213 0 0 0-.213-.213z"/><path fill="#c5c9d3" d="M11.537.965c0-.036-.1-.071-.142-.071h-.331c-.036 0-.125.03-.125.07l-.402.971.254.971v3.872a.1.1 0 0 0 .101.1h.645a.1.1 0 0 0 .1-.1V2.906l.256-.97z"/><path stroke="#c5c9d3" stroke-miterlimit="10" stroke-width="1.02" d="M5.061 1.55v2.22h1.847V1.55s1.29.45 1.326 2.22c0 0-.1 1.196-1.438 1.83l-.018 5.452s1.361.562 1.456 2.09c0 0 .053 1.307-1.196 1.959v-2.214H5.061V15.1s-1.213-.409-1.308-1.906c-.095-1.498 1.456-2.15 1.456-2.15V5.595s-1.426-.539-1.462-1.977 1.308-2.072 1.308-2.072z"/></svg>