<svg xmlns="http://www.w3.org/2000/svg" width="16" height="16" fill="none"><path fill="#c5c9d3" d="M5.033 14.5c6.037 0 9.34-5.002 9.34-9.339 0-.14-.004-.284-.01-.425A6.667 6.667 0 0 0 16 3.036a6.472 6.472 0 0 1-1.884.516 3.3 3.3 0 0 0 1.443-1.815 6.599 6.599 0 0 1-2.083.797A3.287 3.287 0 0 0 7.88 5.527 9.323 9.323 0 0 1 1.115 2.1a3.286 3.286 0 0 0 1.016 4.38 3.287 3.287 0 0 1-1.487-.41v.041A3.281 3.281 0 0 0 3.277 9.33a3.261 3.261 0 0 1-1.48.056 3.29 3.29 0 0 0 3.065 2.281A6.583 6.583 0 0 1 0 13.026 9.312 9.312 0 0 0 5.033 14.5z"/></svg>