<svg xmlns="http://www.w3.org/2000/svg" width="16" height="16" fill="none"><clipPath id="a"><path d="M0 0h16v16H0z"/></clipPath><g clip-path="url(#a)"><path stroke="#c5c9d3" stroke-miterlimit="10" stroke-width="1.07" d="M13.964 2.362H2.036c-.858 0-1.554.802-1.554 1.785v7.706c0 .984.696 1.785 1.554 1.785h11.928c.858 0 1.554-.801 1.554-1.785V4.147c0-.983-.696-1.785-1.554-1.785zM11.52 8.388 6.064 11.79c-.22.138-.47-.087-.47-.42V4.63c0-.332.25-.558.47-.426l5.457 3.339c.263.163.263.683 0 .845z"/></g></svg>