<svg xmlns="http://www.w3.org/2000/svg" width="16" height="16" fill="none"><path stroke="#c5c9d3" d="m9.761 15.324-.818-1.557a.263.263 0 0 0-.152-.128c-.019 0-1.814-.55-3.42-2.173-1.88-1.899-3.07-2.949-3.65-3.218-.012-.006-.024-.024-.024-.06 0-.11.085-.275.287-.385.25-.135 1.031-.354 2.576.726.244.171.476.312.714.434a.258.258 0 0 0 .342-.354l-3.01-5.727a.679.679 0 0 1 .275-.91.665.665 0 0 1 .904.288L6.36 7.156l.458-.245-2.766-5.256c-.17-.33-.049-.732.275-.903s.733-.043.903.287l2.772 5.256.458-.244-2.259-4.28a.679.679 0 0 1 .275-.91.665.665 0 0 1 .903.288l2.253 4.279.458-.244-1.545-2.937c-.17-.33-.048-.732.275-.91s.733-.042.904.288l3.217 6.11c.757 1.435.537 3.505.53 3.523 0 .049 0 .104.031.153l.8 1.514-4.548 2.393z"/></svg>