<svg xmlns="http://www.w3.org/2000/svg" width="16" height="16" fill="none"><clipPath id="a"><path d="M0 0h16v16H0z"/></clipPath><g clip-path="url(#a)"><path fill="#c5c9d3" d="M12.1 12.6c-.6 0-1-.5-1-1 0-.6.5-1 1-1 .6 0 1 .5 1 1 .1.6-.4 1-1 1z"/><path stroke="#c5c9d3" stroke-miterlimit="10" d="M12.1 11.6H7.2c0 1.2-.7 2.3-1.7 2.9-.5.3-1.1.5-1.7.4-.9 0-1.7-.4-2.4-1-.6-.6-1-1.5-.9-2.4 0-1.2.7-2.3 1.7-2.9"/><path fill="#c5c9d3" d="M3 11.1c.3-.5.9-.7 1.4-.4s.7.9.4 1.4-.9.7-1.4.4-.7-.9-.4-1.4z"/><path stroke="#c5c9d3" stroke-miterlimit="10" d="m3.8 11.6 2.5-4.3c-1-.6-1.7-1.7-1.6-2.9 0-.6.2-1.2.5-1.7.5-.8 1.2-1.3 2.1-1.5.7-.3 1.6-.1 2.4.3 1 .6 1.7 1.7 1.6 2.9"/><path fill="#c5c9d3" d="M8.9 3.9c.3.5.1 1.1-.4 1.4s-1.1.1-1.4-.4-.1-1.1.4-1.4 1.1-.1 1.4.4z"/><path stroke="#c5c9d3" stroke-miterlimit="10" d="m8 4.4 2.5 4.3c1-.6 2.3-.6 3.4 0 .5.3.9.7 1.2 1.2.4.8.5 1.7.3 2.6s-.8 1.6-1.6 2c-1 .6-2.3.6-3.4 0"/></g></svg>